<svg xmlns="http://www.w3.org/2000/svg" width="900" height="620" viewBox="0 0 900 620" role="img" aria-label="Jazz Corner">
  <defs>
    <linearGradient id="g" x1="0" y1="0" x2="1" y2="1">
      <stop offset="0%" stop-color="hsl(47, 65%, 84%)"/>
      <stop offset="52%" stop-color="hsl(127, 60%, 62%)"/>
      <stop offset="100%" stop-color="hsl(207, 58%, 38%)"/>
    </linearGradient>
    <filter id="paper">
      <feTurbulence type="fractalNoise" baseFrequency="0.9" numOctaves="3" stitchTiles="stitch"/>
      <feColorMatrix type="saturate" values="0"/>
      <feComponentTransfer><feFuncA type="table" tableValues="0 0.18"/></feComponentTransfer>
      <feBlend mode="multiply" in2="SourceGraphic"/>
    </filter>
  </defs>
  <rect width="900" height="620" fill="url(#g)"/>
  <g filter="url(#paper)"><rect width="900" height="620" fill="#fff" opacity="0.25"/></g>
  <g><circle cx="421" cy="389" r="31" fill="hsl(47, 68%, 55%)" opacity="0.12"/><circle cx="474" cy="430" r="38" fill="hsl(66, 68%, 55%)" opacity="0.18"/><circle cx="527" cy="471" r="45" fill="hsl(85, 68%, 55%)" opacity="0.24"/><circle cx="580" cy="512" r="52" fill="hsl(104, 68%, 55%)" opacity="0.30"/><circle cx="633" cy="553" r="59" fill="hsl(123, 68%, 55%)" opacity="0.36"/><circle cx="686" cy="74" r="66" fill="hsl(142, 68%, 55%)" opacity="0.12"/><circle cx="739" cy="115" r="73" fill="hsl(161, 68%, 55%)" opacity="0.18"/><circle cx="792" cy="156" r="80" fill="hsl(180, 68%, 55%)" opacity="0.24"/><circle cx="85" cy="197" r="87" fill="hsl(199, 68%, 55%)" opacity="0.30"/><circle cx="138" cy="238" r="24" fill="hsl(218, 68%, 55%)" opacity="0.36"/><circle cx="191" cy="279" r="31" fill="hsl(237, 68%, 55%)" opacity="0.12"/><circle cx="244" cy="320" r="38" fill="hsl(256, 68%, 55%)" opacity="0.18"/><circle cx="297" cy="361" r="45" fill="hsl(275, 68%, 55%)" opacity="0.24"/><circle cx="350" cy="402" r="52" fill="hsl(294, 68%, 55%)" opacity="0.30"/><circle cx="403" cy="443" r="59" fill="hsl(313, 68%, 55%)" opacity="0.36"/><circle cx="456" cy="484" r="66" fill="hsl(332, 68%, 55%)" opacity="0.12"/><circle cx="509" cy="525" r="73" fill="hsl(351, 68%, 55%)" opacity="0.18"/><circle cx="562" cy="566" r="80" fill="hsl(10, 68%, 55%)" opacity="0.24"/></g>
  <g><path d="M40 88 C 220 8, 420 178, 860 58" fill="none" stroke="hsl(127, 70%, 42%)" stroke-width="8" opacity="0.34" stroke-linecap="round"/><path d="M40 136 C 220 56, 420 226, 860 106" fill="none" stroke="hsl(140, 70%, 42%)" stroke-width="12" opacity="0.34" stroke-linecap="round"/><path d="M40 184 C 220 104, 420 274, 860 154" fill="none" stroke="hsl(153, 70%, 42%)" stroke-width="16" opacity="0.34" stroke-linecap="round"/><path d="M40 232 C 220 152, 420 322, 860 202" fill="none" stroke="hsl(166, 70%, 42%)" stroke-width="20" opacity="0.34" stroke-linecap="round"/><path d="M40 280 C 220 200, 420 370, 860 250" fill="none" stroke="hsl(179, 70%, 42%)" stroke-width="8" opacity="0.34" stroke-linecap="round"/><path d="M40 328 C 220 248, 420 418, 860 298" fill="none" stroke="hsl(192, 70%, 42%)" stroke-width="12" opacity="0.34" stroke-linecap="round"/><path d="M40 376 C 220 296, 420 466, 860 346" fill="none" stroke="hsl(205, 70%, 42%)" stroke-width="16" opacity="0.34" stroke-linecap="round"/><path d="M40 424 C 220 344, 420 514, 860 394" fill="none" stroke="hsl(218, 70%, 42%)" stroke-width="20" opacity="0.34" stroke-linecap="round"/><path d="M40 472 C 220 392, 420 562, 860 442" fill="none" stroke="hsl(231, 70%, 42%)" stroke-width="8" opacity="0.34" stroke-linecap="round"/><path d="M40 520 C 220 440, 420 610, 860 490" fill="none" stroke="hsl(244, 70%, 42%)" stroke-width="12" opacity="0.34" stroke-linecap="round"/></g>
  <rect x="42" y="42" width="816" height="536" fill="none" stroke="rgba(255,255,255,.75)" stroke-width="10"/>
  <rect x="64" y="64" width="772" height="492" fill="none" stroke="rgba(20,20,20,.22)" stroke-width="2"/>
  <text x="72" y="540" font-family="Georgia, serif" font-size="34" fill="rgba(20,20,20,.72)">Jazz Corner</text>
</svg>