<svg xmlns="http://www.w3.org/2000/svg" width="900" height="620" viewBox="0 0 900 620" role="img" aria-label="Summer Table">
  <defs>
    <linearGradient id="g" x1="0" y1="0" x2="1" y2="1">
      <stop offset="0%" stop-color="hsl(158, 65%, 84%)"/>
      <stop offset="52%" stop-color="hsl(238, 60%, 62%)"/>
      <stop offset="100%" stop-color="hsl(318, 58%, 38%)"/>
    </linearGradient>
    <filter id="paper">
      <feTurbulence type="fractalNoise" baseFrequency="0.9" numOctaves="3" stitchTiles="stitch"/>
      <feColorMatrix type="saturate" values="0"/>
      <feComponentTransfer><feFuncA type="table" tableValues="0 0.18"/></feComponentTransfer>
      <feBlend mode="multiply" in2="SourceGraphic"/>
    </filter>
  </defs>
  <rect width="900" height="620" fill="url(#g)"/>
  <g filter="url(#paper)"><rect width="900" height="620" fill="#fff" opacity="0.25"/></g>
  <g><circle cx="514" cy="476" r="34" fill="hsl(158, 68%, 55%)" opacity="0.12"/><circle cx="567" cy="517" r="41" fill="hsl(177, 68%, 55%)" opacity="0.18"/><circle cx="620" cy="558" r="48" fill="hsl(196, 68%, 55%)" opacity="0.24"/><circle cx="673" cy="79" r="55" fill="hsl(215, 68%, 55%)" opacity="0.30"/><circle cx="726" cy="120" r="62" fill="hsl(234, 68%, 55%)" opacity="0.36"/><circle cx="779" cy="161" r="69" fill="hsl(253, 68%, 55%)" opacity="0.12"/><circle cx="832" cy="202" r="76" fill="hsl(272, 68%, 55%)" opacity="0.18"/><circle cx="125" cy="243" r="83" fill="hsl(291, 68%, 55%)" opacity="0.24"/><circle cx="178" cy="284" r="20" fill="hsl(310, 68%, 55%)" opacity="0.30"/><circle cx="231" cy="325" r="27" fill="hsl(329, 68%, 55%)" opacity="0.36"/><circle cx="284" cy="366" r="34" fill="hsl(348, 68%, 55%)" opacity="0.12"/><circle cx="337" cy="407" r="41" fill="hsl(7, 68%, 55%)" opacity="0.18"/><circle cx="390" cy="448" r="48" fill="hsl(26, 68%, 55%)" opacity="0.24"/><circle cx="443" cy="489" r="55" fill="hsl(45, 68%, 55%)" opacity="0.30"/><circle cx="496" cy="530" r="62" fill="hsl(64, 68%, 55%)" opacity="0.36"/><circle cx="549" cy="571" r="69" fill="hsl(83, 68%, 55%)" opacity="0.12"/><circle cx="602" cy="92" r="76" fill="hsl(102, 68%, 55%)" opacity="0.18"/><circle cx="655" cy="133" r="83" fill="hsl(121, 68%, 55%)" opacity="0.24"/></g>
  <g><path d="M40 97 C 220 17, 420 187, 860 67" fill="none" stroke="hsl(238, 70%, 42%)" stroke-width="8" opacity="0.34" stroke-linecap="round"/><path d="M40 145 C 220 65, 420 235, 860 115" fill="none" stroke="hsl(251, 70%, 42%)" stroke-width="12" opacity="0.34" stroke-linecap="round"/><path d="M40 193 C 220 113, 420 283, 860 163" fill="none" stroke="hsl(264, 70%, 42%)" stroke-width="16" opacity="0.34" stroke-linecap="round"/><path d="M40 241 C 220 161, 420 331, 860 211" fill="none" stroke="hsl(277, 70%, 42%)" stroke-width="20" opacity="0.34" stroke-linecap="round"/><path d="M40 289 C 220 209, 420 379, 860 259" fill="none" stroke="hsl(290, 70%, 42%)" stroke-width="8" opacity="0.34" stroke-linecap="round"/><path d="M40 337 C 220 257, 420 427, 860 307" fill="none" stroke="hsl(303, 70%, 42%)" stroke-width="12" opacity="0.34" stroke-linecap="round"/><path d="M40 385 C 220 305, 420 475, 860 355" fill="none" stroke="hsl(316, 70%, 42%)" stroke-width="16" opacity="0.34" stroke-linecap="round"/><path d="M40 433 C 220 353, 420 523, 860 403" fill="none" stroke="hsl(329, 70%, 42%)" stroke-width="20" opacity="0.34" stroke-linecap="round"/><path d="M40 481 C 220 401, 420 571, 860 451" fill="none" stroke="hsl(342, 70%, 42%)" stroke-width="8" opacity="0.34" stroke-linecap="round"/><path d="M40 529 C 220 449, 420 619, 860 499" fill="none" stroke="hsl(355, 70%, 42%)" stroke-width="12" opacity="0.34" stroke-linecap="round"/></g>
  <rect x="42" y="42" width="816" height="536" fill="none" stroke="rgba(255,255,255,.75)" stroke-width="10"/>
  <rect x="64" y="64" width="772" height="492" fill="none" stroke="rgba(20,20,20,.22)" stroke-width="2"/>
  <text x="72" y="540" font-family="Georgia, serif" font-size="34" fill="rgba(20,20,20,.72)">Summer Table</text>
</svg>