<svg xmlns="http://www.w3.org/2000/svg" width="900" height="620" viewBox="0 0 900 620" role="img" aria-label="Golden Avenue">
  <defs>
    <linearGradient id="g" x1="0" y1="0" x2="1" y2="1">
      <stop offset="0%" stop-color="hsl(111, 65%, 84%)"/>
      <stop offset="52%" stop-color="hsl(191, 60%, 62%)"/>
      <stop offset="100%" stop-color="hsl(271, 58%, 38%)"/>
    </linearGradient>
    <filter id="paper">
      <feTurbulence type="fractalNoise" baseFrequency="0.9" numOctaves="3" stitchTiles="stitch"/>
      <feColorMatrix type="saturate" values="0"/>
      <feComponentTransfer><feFuncA type="table" tableValues="0 0.18"/></feComponentTransfer>
      <feBlend mode="multiply" in2="SourceGraphic"/>
    </filter>
  </defs>
  <rect width="900" height="620" fill="url(#g)"/>
  <g filter="url(#paper)"><rect width="900" height="620" fill="#fff" opacity="0.25"/></g>
  <g><circle cx="173" cy="157" r="23" fill="hsl(111, 68%, 55%)" opacity="0.12"/><circle cx="226" cy="198" r="30" fill="hsl(130, 68%, 55%)" opacity="0.18"/><circle cx="279" cy="239" r="37" fill="hsl(149, 68%, 55%)" opacity="0.24"/><circle cx="332" cy="280" r="44" fill="hsl(168, 68%, 55%)" opacity="0.30"/><circle cx="385" cy="321" r="51" fill="hsl(187, 68%, 55%)" opacity="0.36"/><circle cx="438" cy="362" r="58" fill="hsl(206, 68%, 55%)" opacity="0.12"/><circle cx="491" cy="403" r="65" fill="hsl(225, 68%, 55%)" opacity="0.18"/><circle cx="544" cy="444" r="72" fill="hsl(244, 68%, 55%)" opacity="0.24"/><circle cx="597" cy="485" r="79" fill="hsl(263, 68%, 55%)" opacity="0.30"/><circle cx="650" cy="526" r="86" fill="hsl(282, 68%, 55%)" opacity="0.36"/><circle cx="703" cy="567" r="23" fill="hsl(301, 68%, 55%)" opacity="0.12"/><circle cx="756" cy="88" r="30" fill="hsl(320, 68%, 55%)" opacity="0.18"/><circle cx="809" cy="129" r="37" fill="hsl(339, 68%, 55%)" opacity="0.24"/><circle cx="102" cy="170" r="44" fill="hsl(358, 68%, 55%)" opacity="0.30"/><circle cx="155" cy="211" r="51" fill="hsl(17, 68%, 55%)" opacity="0.36"/><circle cx="208" cy="252" r="58" fill="hsl(36, 68%, 55%)" opacity="0.12"/><circle cx="261" cy="293" r="65" fill="hsl(55, 68%, 55%)" opacity="0.18"/><circle cx="314" cy="334" r="72" fill="hsl(74, 68%, 55%)" opacity="0.24"/></g>
  <g><path d="M40 89 C 220 9, 420 179, 860 59" fill="none" stroke="hsl(191, 70%, 42%)" stroke-width="8" opacity="0.34" stroke-linecap="round"/><path d="M40 137 C 220 57, 420 227, 860 107" fill="none" stroke="hsl(204, 70%, 42%)" stroke-width="12" opacity="0.34" stroke-linecap="round"/><path d="M40 185 C 220 105, 420 275, 860 155" fill="none" stroke="hsl(217, 70%, 42%)" stroke-width="16" opacity="0.34" stroke-linecap="round"/><path d="M40 233 C 220 153, 420 323, 860 203" fill="none" stroke="hsl(230, 70%, 42%)" stroke-width="20" opacity="0.34" stroke-linecap="round"/><path d="M40 281 C 220 201, 420 371, 860 251" fill="none" stroke="hsl(243, 70%, 42%)" stroke-width="8" opacity="0.34" stroke-linecap="round"/><path d="M40 329 C 220 249, 420 419, 860 299" fill="none" stroke="hsl(256, 70%, 42%)" stroke-width="12" opacity="0.34" stroke-linecap="round"/><path d="M40 377 C 220 297, 420 467, 860 347" fill="none" stroke="hsl(269, 70%, 42%)" stroke-width="16" opacity="0.34" stroke-linecap="round"/><path d="M40 425 C 220 345, 420 515, 860 395" fill="none" stroke="hsl(282, 70%, 42%)" stroke-width="20" opacity="0.34" stroke-linecap="round"/><path d="M40 473 C 220 393, 420 563, 860 443" fill="none" stroke="hsl(295, 70%, 42%)" stroke-width="8" opacity="0.34" stroke-linecap="round"/><path d="M40 521 C 220 441, 420 611, 860 491" fill="none" stroke="hsl(308, 70%, 42%)" stroke-width="12" opacity="0.34" stroke-linecap="round"/></g>
  <rect x="42" y="42" width="816" height="536" fill="none" stroke="rgba(255,255,255,.75)" stroke-width="10"/>
  <rect x="64" y="64" width="772" height="492" fill="none" stroke="rgba(20,20,20,.22)" stroke-width="2"/>
  <text x="72" y="540" font-family="Georgia, serif" font-size="34" fill="rgba(20,20,20,.72)">Golden Avenue</text>
</svg>