<svg xmlns="http://www.w3.org/2000/svg" width="900" height="620" viewBox="0 0 900 620" role="img" aria-label="Autumn Bridge">
  <defs>
    <linearGradient id="g" x1="0" y1="0" x2="1" y2="1">
      <stop offset="0%" stop-color="hsl(84, 65%, 84%)"/>
      <stop offset="52%" stop-color="hsl(164, 60%, 62%)"/>
      <stop offset="100%" stop-color="hsl(244, 58%, 38%)"/>
    </linearGradient>
    <filter id="paper">
      <feTurbulence type="fractalNoise" baseFrequency="0.9" numOctaves="3" stitchTiles="stitch"/>
      <feColorMatrix type="saturate" values="0"/>
      <feComponentTransfer><feFuncA type="table" tableValues="0 0.18"/></feComponentTransfer>
      <feBlend mode="multiply" in2="SourceGraphic"/>
    </filter>
  </defs>
  <rect width="900" height="620" fill="url(#g)"/>
  <g filter="url(#paper)"><rect width="900" height="620" fill="#fff" opacity="0.25"/></g>
  <g><circle cx="452" cy="418" r="32" fill="hsl(84, 68%, 55%)" opacity="0.12"/><circle cx="505" cy="459" r="39" fill="hsl(103, 68%, 55%)" opacity="0.18"/><circle cx="558" cy="500" r="46" fill="hsl(122, 68%, 55%)" opacity="0.24"/><circle cx="611" cy="541" r="53" fill="hsl(141, 68%, 55%)" opacity="0.30"/><circle cx="664" cy="582" r="60" fill="hsl(160, 68%, 55%)" opacity="0.36"/><circle cx="717" cy="103" r="67" fill="hsl(179, 68%, 55%)" opacity="0.12"/><circle cx="770" cy="144" r="74" fill="hsl(198, 68%, 55%)" opacity="0.18"/><circle cx="823" cy="185" r="81" fill="hsl(217, 68%, 55%)" opacity="0.24"/><circle cx="116" cy="226" r="88" fill="hsl(236, 68%, 55%)" opacity="0.30"/><circle cx="169" cy="267" r="25" fill="hsl(255, 68%, 55%)" opacity="0.36"/><circle cx="222" cy="308" r="32" fill="hsl(274, 68%, 55%)" opacity="0.12"/><circle cx="275" cy="349" r="39" fill="hsl(293, 68%, 55%)" opacity="0.18"/><circle cx="328" cy="390" r="46" fill="hsl(312, 68%, 55%)" opacity="0.24"/><circle cx="381" cy="431" r="53" fill="hsl(331, 68%, 55%)" opacity="0.30"/><circle cx="434" cy="472" r="60" fill="hsl(350, 68%, 55%)" opacity="0.36"/><circle cx="487" cy="513" r="67" fill="hsl(9, 68%, 55%)" opacity="0.12"/><circle cx="540" cy="554" r="74" fill="hsl(28, 68%, 55%)" opacity="0.18"/><circle cx="593" cy="75" r="81" fill="hsl(47, 68%, 55%)" opacity="0.24"/></g>
  <g><path d="M40 91 C 220 11, 420 181, 860 61" fill="none" stroke="hsl(164, 70%, 42%)" stroke-width="8" opacity="0.34" stroke-linecap="round"/><path d="M40 139 C 220 59, 420 229, 860 109" fill="none" stroke="hsl(177, 70%, 42%)" stroke-width="12" opacity="0.34" stroke-linecap="round"/><path d="M40 187 C 220 107, 420 277, 860 157" fill="none" stroke="hsl(190, 70%, 42%)" stroke-width="16" opacity="0.34" stroke-linecap="round"/><path d="M40 235 C 220 155, 420 325, 860 205" fill="none" stroke="hsl(203, 70%, 42%)" stroke-width="20" opacity="0.34" stroke-linecap="round"/><path d="M40 283 C 220 203, 420 373, 860 253" fill="none" stroke="hsl(216, 70%, 42%)" stroke-width="8" opacity="0.34" stroke-linecap="round"/><path d="M40 331 C 220 251, 420 421, 860 301" fill="none" stroke="hsl(229, 70%, 42%)" stroke-width="12" opacity="0.34" stroke-linecap="round"/><path d="M40 379 C 220 299, 420 469, 860 349" fill="none" stroke="hsl(242, 70%, 42%)" stroke-width="16" opacity="0.34" stroke-linecap="round"/><path d="M40 427 C 220 347, 420 517, 860 397" fill="none" stroke="hsl(255, 70%, 42%)" stroke-width="20" opacity="0.34" stroke-linecap="round"/><path d="M40 475 C 220 395, 420 565, 860 445" fill="none" stroke="hsl(268, 70%, 42%)" stroke-width="8" opacity="0.34" stroke-linecap="round"/><path d="M40 523 C 220 443, 420 613, 860 493" fill="none" stroke="hsl(281, 70%, 42%)" stroke-width="12" opacity="0.34" stroke-linecap="round"/></g>
  <rect x="42" y="42" width="816" height="536" fill="none" stroke="rgba(255,255,255,.75)" stroke-width="10"/>
  <rect x="64" y="64" width="772" height="492" fill="none" stroke="rgba(20,20,20,.22)" stroke-width="2"/>
  <text x="72" y="540" font-family="Georgia, serif" font-size="34" fill="rgba(20,20,20,.72)">Autumn Bridge</text>
</svg>