<svg xmlns="http://www.w3.org/2000/svg" width="900" height="620" viewBox="0 0 900 620" role="img" aria-label="Copper Hills">
  <defs>
    <linearGradient id="g" x1="0" y1="0" x2="1" y2="1">
      <stop offset="0%" stop-color="hsl(259, 65%, 84%)"/>
      <stop offset="52%" stop-color="hsl(339, 60%, 62%)"/>
      <stop offset="100%" stop-color="hsl(59, 58%, 38%)"/>
    </linearGradient>
    <filter id="paper">
      <feTurbulence type="fractalNoise" baseFrequency="0.9" numOctaves="3" stitchTiles="stitch"/>
      <feColorMatrix type="saturate" values="0"/>
      <feComponentTransfer><feFuncA type="table" tableValues="0 0.18"/></feComponentTransfer>
      <feBlend mode="multiply" in2="SourceGraphic"/>
    </filter>
  </defs>
  <rect width="900" height="620" fill="url(#g)"/>
  <g filter="url(#paper)"><rect width="900" height="620" fill="#fff" opacity="0.25"/></g>
  <g><circle cx="297" cy="273" r="27" fill="hsl(259, 68%, 55%)" opacity="0.12"/><circle cx="350" cy="314" r="34" fill="hsl(278, 68%, 55%)" opacity="0.18"/><circle cx="403" cy="355" r="41" fill="hsl(297, 68%, 55%)" opacity="0.24"/><circle cx="456" cy="396" r="48" fill="hsl(316, 68%, 55%)" opacity="0.30"/><circle cx="509" cy="437" r="55" fill="hsl(335, 68%, 55%)" opacity="0.36"/><circle cx="562" cy="478" r="62" fill="hsl(354, 68%, 55%)" opacity="0.12"/><circle cx="615" cy="519" r="69" fill="hsl(13, 68%, 55%)" opacity="0.18"/><circle cx="668" cy="560" r="76" fill="hsl(32, 68%, 55%)" opacity="0.24"/><circle cx="721" cy="81" r="83" fill="hsl(51, 68%, 55%)" opacity="0.30"/><circle cx="774" cy="122" r="20" fill="hsl(70, 68%, 55%)" opacity="0.36"/><circle cx="827" cy="163" r="27" fill="hsl(89, 68%, 55%)" opacity="0.12"/><circle cx="120" cy="204" r="34" fill="hsl(108, 68%, 55%)" opacity="0.18"/><circle cx="173" cy="245" r="41" fill="hsl(127, 68%, 55%)" opacity="0.24"/><circle cx="226" cy="286" r="48" fill="hsl(146, 68%, 55%)" opacity="0.30"/><circle cx="279" cy="327" r="55" fill="hsl(165, 68%, 55%)" opacity="0.36"/><circle cx="332" cy="368" r="62" fill="hsl(184, 68%, 55%)" opacity="0.12"/><circle cx="385" cy="409" r="69" fill="hsl(203, 68%, 55%)" opacity="0.18"/><circle cx="438" cy="450" r="76" fill="hsl(222, 68%, 55%)" opacity="0.24"/></g>
  <g><path d="M40 101 C 220 21, 420 191, 860 71" fill="none" stroke="hsl(339, 70%, 42%)" stroke-width="8" opacity="0.34" stroke-linecap="round"/><path d="M40 149 C 220 69, 420 239, 860 119" fill="none" stroke="hsl(352, 70%, 42%)" stroke-width="12" opacity="0.34" stroke-linecap="round"/><path d="M40 197 C 220 117, 420 287, 860 167" fill="none" stroke="hsl(5, 70%, 42%)" stroke-width="16" opacity="0.34" stroke-linecap="round"/><path d="M40 245 C 220 165, 420 335, 860 215" fill="none" stroke="hsl(18, 70%, 42%)" stroke-width="20" opacity="0.34" stroke-linecap="round"/><path d="M40 293 C 220 213, 420 383, 860 263" fill="none" stroke="hsl(31, 70%, 42%)" stroke-width="8" opacity="0.34" stroke-linecap="round"/><path d="M40 341 C 220 261, 420 431, 860 311" fill="none" stroke="hsl(44, 70%, 42%)" stroke-width="12" opacity="0.34" stroke-linecap="round"/><path d="M40 389 C 220 309, 420 479, 860 359" fill="none" stroke="hsl(57, 70%, 42%)" stroke-width="16" opacity="0.34" stroke-linecap="round"/><path d="M40 437 C 220 357, 420 527, 860 407" fill="none" stroke="hsl(70, 70%, 42%)" stroke-width="20" opacity="0.34" stroke-linecap="round"/><path d="M40 485 C 220 405, 420 575, 860 455" fill="none" stroke="hsl(83, 70%, 42%)" stroke-width="8" opacity="0.34" stroke-linecap="round"/><path d="M40 533 C 220 453, 420 623, 860 503" fill="none" stroke="hsl(96, 70%, 42%)" stroke-width="12" opacity="0.34" stroke-linecap="round"/></g>
  <rect x="42" y="42" width="816" height="536" fill="none" stroke="rgba(255,255,255,.75)" stroke-width="10"/>
  <rect x="64" y="64" width="772" height="492" fill="none" stroke="rgba(20,20,20,.22)" stroke-width="2"/>
  <text x="72" y="540" font-family="Georgia, serif" font-size="34" fill="rgba(20,20,20,.72)">Copper Hills</text>
</svg>