<svg xmlns="http://www.w3.org/2000/svg" width="900" height="620" viewBox="0 0 900 620" role="img" aria-label="Sunlit Harbor">
  <defs>
    <linearGradient id="g" x1="0" y1="0" x2="1" y2="1">
      <stop offset="0%" stop-color="hsl(37, 65%, 84%)"/>
      <stop offset="52%" stop-color="hsl(117, 60%, 62%)"/>
      <stop offset="100%" stop-color="hsl(197, 58%, 38%)"/>
    </linearGradient>
    <filter id="paper">
      <feTurbulence type="fractalNoise" baseFrequency="0.9" numOctaves="3" stitchTiles="stitch"/>
      <feColorMatrix type="saturate" values="0"/>
      <feComponentTransfer><feFuncA type="table" tableValues="0 0.18"/></feComponentTransfer>
      <feBlend mode="multiply" in2="SourceGraphic"/>
    </filter>
  </defs>
  <rect width="900" height="620" fill="url(#g)"/>
  <g filter="url(#paper)"><rect width="900" height="620" fill="#fff" opacity="0.25"/></g>
  <g><circle cx="111" cy="99" r="21" fill="hsl(37, 68%, 55%)" opacity="0.12"/><circle cx="164" cy="140" r="28" fill="hsl(56, 68%, 55%)" opacity="0.18"/><circle cx="217" cy="181" r="35" fill="hsl(75, 68%, 55%)" opacity="0.24"/><circle cx="270" cy="222" r="42" fill="hsl(94, 68%, 55%)" opacity="0.30"/><circle cx="323" cy="263" r="49" fill="hsl(113, 68%, 55%)" opacity="0.36"/><circle cx="376" cy="304" r="56" fill="hsl(132, 68%, 55%)" opacity="0.12"/><circle cx="429" cy="345" r="63" fill="hsl(151, 68%, 55%)" opacity="0.18"/><circle cx="482" cy="386" r="70" fill="hsl(170, 68%, 55%)" opacity="0.24"/><circle cx="535" cy="427" r="77" fill="hsl(189, 68%, 55%)" opacity="0.30"/><circle cx="588" cy="468" r="84" fill="hsl(208, 68%, 55%)" opacity="0.36"/><circle cx="641" cy="509" r="21" fill="hsl(227, 68%, 55%)" opacity="0.12"/><circle cx="694" cy="550" r="28" fill="hsl(246, 68%, 55%)" opacity="0.18"/><circle cx="747" cy="71" r="35" fill="hsl(265, 68%, 55%)" opacity="0.24"/><circle cx="800" cy="112" r="42" fill="hsl(284, 68%, 55%)" opacity="0.30"/><circle cx="93" cy="153" r="49" fill="hsl(303, 68%, 55%)" opacity="0.36"/><circle cx="146" cy="194" r="56" fill="hsl(322, 68%, 55%)" opacity="0.12"/><circle cx="199" cy="235" r="63" fill="hsl(341, 68%, 55%)" opacity="0.18"/><circle cx="252" cy="276" r="70" fill="hsl(0, 68%, 55%)" opacity="0.24"/></g>
  <g><path d="M40 83 C 220 3, 420 173, 860 53" fill="none" stroke="hsl(117, 70%, 42%)" stroke-width="8" opacity="0.34" stroke-linecap="round"/><path d="M40 131 C 220 51, 420 221, 860 101" fill="none" stroke="hsl(130, 70%, 42%)" stroke-width="12" opacity="0.34" stroke-linecap="round"/><path d="M40 179 C 220 99, 420 269, 860 149" fill="none" stroke="hsl(143, 70%, 42%)" stroke-width="16" opacity="0.34" stroke-linecap="round"/><path d="M40 227 C 220 147, 420 317, 860 197" fill="none" stroke="hsl(156, 70%, 42%)" stroke-width="20" opacity="0.34" stroke-linecap="round"/><path d="M40 275 C 220 195, 420 365, 860 245" fill="none" stroke="hsl(169, 70%, 42%)" stroke-width="8" opacity="0.34" stroke-linecap="round"/><path d="M40 323 C 220 243, 420 413, 860 293" fill="none" stroke="hsl(182, 70%, 42%)" stroke-width="12" opacity="0.34" stroke-linecap="round"/><path d="M40 371 C 220 291, 420 461, 860 341" fill="none" stroke="hsl(195, 70%, 42%)" stroke-width="16" opacity="0.34" stroke-linecap="round"/><path d="M40 419 C 220 339, 420 509, 860 389" fill="none" stroke="hsl(208, 70%, 42%)" stroke-width="20" opacity="0.34" stroke-linecap="round"/><path d="M40 467 C 220 387, 420 557, 860 437" fill="none" stroke="hsl(221, 70%, 42%)" stroke-width="8" opacity="0.34" stroke-linecap="round"/><path d="M40 515 C 220 435, 420 605, 860 485" fill="none" stroke="hsl(234, 70%, 42%)" stroke-width="12" opacity="0.34" stroke-linecap="round"/></g>
  <rect x="42" y="42" width="816" height="536" fill="none" stroke="rgba(255,255,255,.75)" stroke-width="10"/>
  <rect x="64" y="64" width="772" height="492" fill="none" stroke="rgba(20,20,20,.22)" stroke-width="2"/>
  <text x="72" y="540" font-family="Georgia, serif" font-size="34" fill="rgba(20,20,20,.72)">Sunlit Harbor</text>
</svg>