<svg xmlns="http://www.w3.org/2000/svg" width="900" height="620" viewBox="0 0 900 620" role="img" aria-label="Pink Horizon">
  <defs>
    <linearGradient id="g" x1="0" y1="0" x2="1" y2="1">
      <stop offset="0%" stop-color="hsl(232, 65%, 84%)"/>
      <stop offset="52%" stop-color="hsl(312, 60%, 62%)"/>
      <stop offset="100%" stop-color="hsl(32, 58%, 38%)"/>
    </linearGradient>
    <filter id="paper">
      <feTurbulence type="fractalNoise" baseFrequency="0.9" numOctaves="3" stitchTiles="stitch"/>
      <feColorMatrix type="saturate" values="0"/>
      <feComponentTransfer><feFuncA type="table" tableValues="0 0.18"/></feComponentTransfer>
      <feBlend mode="multiply" in2="SourceGraphic"/>
    </filter>
  </defs>
  <rect width="900" height="620" fill="url(#g)"/>
  <g filter="url(#paper)"><rect width="900" height="620" fill="#fff" opacity="0.25"/></g>
  <g><circle cx="576" cy="534" r="36" fill="hsl(232, 68%, 55%)" opacity="0.12"/><circle cx="629" cy="575" r="43" fill="hsl(251, 68%, 55%)" opacity="0.18"/><circle cx="682" cy="96" r="50" fill="hsl(270, 68%, 55%)" opacity="0.24"/><circle cx="735" cy="137" r="57" fill="hsl(289, 68%, 55%)" opacity="0.30"/><circle cx="788" cy="178" r="64" fill="hsl(308, 68%, 55%)" opacity="0.36"/><circle cx="81" cy="219" r="71" fill="hsl(327, 68%, 55%)" opacity="0.12"/><circle cx="134" cy="260" r="78" fill="hsl(346, 68%, 55%)" opacity="0.18"/><circle cx="187" cy="301" r="85" fill="hsl(5, 68%, 55%)" opacity="0.24"/><circle cx="240" cy="342" r="22" fill="hsl(24, 68%, 55%)" opacity="0.30"/><circle cx="293" cy="383" r="29" fill="hsl(43, 68%, 55%)" opacity="0.36"/><circle cx="346" cy="424" r="36" fill="hsl(62, 68%, 55%)" opacity="0.12"/><circle cx="399" cy="465" r="43" fill="hsl(81, 68%, 55%)" opacity="0.18"/><circle cx="452" cy="506" r="50" fill="hsl(100, 68%, 55%)" opacity="0.24"/><circle cx="505" cy="547" r="57" fill="hsl(119, 68%, 55%)" opacity="0.30"/><circle cx="558" cy="588" r="64" fill="hsl(138, 68%, 55%)" opacity="0.36"/><circle cx="611" cy="109" r="71" fill="hsl(157, 68%, 55%)" opacity="0.12"/><circle cx="664" cy="150" r="78" fill="hsl(176, 68%, 55%)" opacity="0.18"/><circle cx="717" cy="191" r="85" fill="hsl(195, 68%, 55%)" opacity="0.24"/></g>
  <g><path d="M40 103 C 220 23, 420 193, 860 73" fill="none" stroke="hsl(312, 70%, 42%)" stroke-width="8" opacity="0.34" stroke-linecap="round"/><path d="M40 151 C 220 71, 420 241, 860 121" fill="none" stroke="hsl(325, 70%, 42%)" stroke-width="12" opacity="0.34" stroke-linecap="round"/><path d="M40 199 C 220 119, 420 289, 860 169" fill="none" stroke="hsl(338, 70%, 42%)" stroke-width="16" opacity="0.34" stroke-linecap="round"/><path d="M40 247 C 220 167, 420 337, 860 217" fill="none" stroke="hsl(351, 70%, 42%)" stroke-width="20" opacity="0.34" stroke-linecap="round"/><path d="M40 295 C 220 215, 420 385, 860 265" fill="none" stroke="hsl(4, 70%, 42%)" stroke-width="8" opacity="0.34" stroke-linecap="round"/><path d="M40 343 C 220 263, 420 433, 860 313" fill="none" stroke="hsl(17, 70%, 42%)" stroke-width="12" opacity="0.34" stroke-linecap="round"/><path d="M40 391 C 220 311, 420 481, 860 361" fill="none" stroke="hsl(30, 70%, 42%)" stroke-width="16" opacity="0.34" stroke-linecap="round"/><path d="M40 439 C 220 359, 420 529, 860 409" fill="none" stroke="hsl(43, 70%, 42%)" stroke-width="20" opacity="0.34" stroke-linecap="round"/><path d="M40 487 C 220 407, 420 577, 860 457" fill="none" stroke="hsl(56, 70%, 42%)" stroke-width="8" opacity="0.34" stroke-linecap="round"/><path d="M40 535 C 220 455, 420 625, 860 505" fill="none" stroke="hsl(69, 70%, 42%)" stroke-width="12" opacity="0.34" stroke-linecap="round"/></g>
  <rect x="42" y="42" width="816" height="536" fill="none" stroke="rgba(255,255,255,.75)" stroke-width="10"/>
  <rect x="64" y="64" width="772" height="492" fill="none" stroke="rgba(20,20,20,.22)" stroke-width="2"/>
  <text x="72" y="540" font-family="Georgia, serif" font-size="34" fill="rgba(20,20,20,.72)">Pink Horizon</text>
</svg>