<svg xmlns="http://www.w3.org/2000/svg" width="900" height="620" viewBox="0 0 900 620" role="img" aria-label="Blue Orchard">
  <defs>
    <linearGradient id="g" x1="0" y1="0" x2="1" y2="1">
      <stop offset="0%" stop-color="hsl(74, 65%, 84%)"/>
      <stop offset="52%" stop-color="hsl(154, 60%, 62%)"/>
      <stop offset="100%" stop-color="hsl(234, 58%, 38%)"/>
    </linearGradient>
    <filter id="paper">
      <feTurbulence type="fractalNoise" baseFrequency="0.9" numOctaves="3" stitchTiles="stitch"/>
      <feColorMatrix type="saturate" values="0"/>
      <feComponentTransfer><feFuncA type="table" tableValues="0 0.18"/></feComponentTransfer>
      <feBlend mode="multiply" in2="SourceGraphic"/>
    </filter>
  </defs>
  <rect width="900" height="620" fill="url(#g)"/>
  <g filter="url(#paper)"><rect width="900" height="620" fill="#fff" opacity="0.25"/></g>
  <g><circle cx="142" cy="128" r="22" fill="hsl(74, 68%, 55%)" opacity="0.12"/><circle cx="195" cy="169" r="29" fill="hsl(93, 68%, 55%)" opacity="0.18"/><circle cx="248" cy="210" r="36" fill="hsl(112, 68%, 55%)" opacity="0.24"/><circle cx="301" cy="251" r="43" fill="hsl(131, 68%, 55%)" opacity="0.30"/><circle cx="354" cy="292" r="50" fill="hsl(150, 68%, 55%)" opacity="0.36"/><circle cx="407" cy="333" r="57" fill="hsl(169, 68%, 55%)" opacity="0.12"/><circle cx="460" cy="374" r="64" fill="hsl(188, 68%, 55%)" opacity="0.18"/><circle cx="513" cy="415" r="71" fill="hsl(207, 68%, 55%)" opacity="0.24"/><circle cx="566" cy="456" r="78" fill="hsl(226, 68%, 55%)" opacity="0.30"/><circle cx="619" cy="497" r="85" fill="hsl(245, 68%, 55%)" opacity="0.36"/><circle cx="672" cy="538" r="22" fill="hsl(264, 68%, 55%)" opacity="0.12"/><circle cx="725" cy="579" r="29" fill="hsl(283, 68%, 55%)" opacity="0.18"/><circle cx="778" cy="100" r="36" fill="hsl(302, 68%, 55%)" opacity="0.24"/><circle cx="831" cy="141" r="43" fill="hsl(321, 68%, 55%)" opacity="0.30"/><circle cx="124" cy="182" r="50" fill="hsl(340, 68%, 55%)" opacity="0.36"/><circle cx="177" cy="223" r="57" fill="hsl(359, 68%, 55%)" opacity="0.12"/><circle cx="230" cy="264" r="64" fill="hsl(18, 68%, 55%)" opacity="0.18"/><circle cx="283" cy="305" r="71" fill="hsl(37, 68%, 55%)" opacity="0.24"/></g>
  <g><path d="M40 86 C 220 6, 420 176, 860 56" fill="none" stroke="hsl(154, 70%, 42%)" stroke-width="8" opacity="0.34" stroke-linecap="round"/><path d="M40 134 C 220 54, 420 224, 860 104" fill="none" stroke="hsl(167, 70%, 42%)" stroke-width="12" opacity="0.34" stroke-linecap="round"/><path d="M40 182 C 220 102, 420 272, 860 152" fill="none" stroke="hsl(180, 70%, 42%)" stroke-width="16" opacity="0.34" stroke-linecap="round"/><path d="M40 230 C 220 150, 420 320, 860 200" fill="none" stroke="hsl(193, 70%, 42%)" stroke-width="20" opacity="0.34" stroke-linecap="round"/><path d="M40 278 C 220 198, 420 368, 860 248" fill="none" stroke="hsl(206, 70%, 42%)" stroke-width="8" opacity="0.34" stroke-linecap="round"/><path d="M40 326 C 220 246, 420 416, 860 296" fill="none" stroke="hsl(219, 70%, 42%)" stroke-width="12" opacity="0.34" stroke-linecap="round"/><path d="M40 374 C 220 294, 420 464, 860 344" fill="none" stroke="hsl(232, 70%, 42%)" stroke-width="16" opacity="0.34" stroke-linecap="round"/><path d="M40 422 C 220 342, 420 512, 860 392" fill="none" stroke="hsl(245, 70%, 42%)" stroke-width="20" opacity="0.34" stroke-linecap="round"/><path d="M40 470 C 220 390, 420 560, 860 440" fill="none" stroke="hsl(258, 70%, 42%)" stroke-width="8" opacity="0.34" stroke-linecap="round"/><path d="M40 518 C 220 438, 420 608, 860 488" fill="none" stroke="hsl(271, 70%, 42%)" stroke-width="12" opacity="0.34" stroke-linecap="round"/></g>
  <rect x="42" y="42" width="816" height="536" fill="none" stroke="rgba(255,255,255,.75)" stroke-width="10"/>
  <rect x="64" y="64" width="772" height="492" fill="none" stroke="rgba(20,20,20,.22)" stroke-width="2"/>
  <text x="72" y="540" font-family="Georgia, serif" font-size="34" fill="rgba(20,20,20,.72)">Blue Orchard</text>
</svg>