<svg xmlns="http://www.w3.org/2000/svg" width="900" height="620" viewBox="0 0 900 620" role="img" aria-label="White Roses">
  <defs>
    <linearGradient id="g" x1="0" y1="0" x2="1" y2="1">
      <stop offset="0%" stop-color="hsl(10, 65%, 84%)"/>
      <stop offset="52%" stop-color="hsl(90, 60%, 62%)"/>
      <stop offset="100%" stop-color="hsl(170, 58%, 38%)"/>
    </linearGradient>
    <filter id="paper">
      <feTurbulence type="fractalNoise" baseFrequency="0.9" numOctaves="3" stitchTiles="stitch"/>
      <feColorMatrix type="saturate" values="0"/>
      <feComponentTransfer><feFuncA type="table" tableValues="0 0.18"/></feComponentTransfer>
      <feBlend mode="multiply" in2="SourceGraphic"/>
    </filter>
  </defs>
  <rect width="900" height="620" fill="url(#g)"/>
  <g filter="url(#paper)"><rect width="900" height="620" fill="#fff" opacity="0.25"/></g>
  <g><circle cx="390" cy="360" r="30" fill="hsl(10, 68%, 55%)" opacity="0.12"/><circle cx="443" cy="401" r="37" fill="hsl(29, 68%, 55%)" opacity="0.18"/><circle cx="496" cy="442" r="44" fill="hsl(48, 68%, 55%)" opacity="0.24"/><circle cx="549" cy="483" r="51" fill="hsl(67, 68%, 55%)" opacity="0.30"/><circle cx="602" cy="524" r="58" fill="hsl(86, 68%, 55%)" opacity="0.36"/><circle cx="655" cy="565" r="65" fill="hsl(105, 68%, 55%)" opacity="0.12"/><circle cx="708" cy="86" r="72" fill="hsl(124, 68%, 55%)" opacity="0.18"/><circle cx="761" cy="127" r="79" fill="hsl(143, 68%, 55%)" opacity="0.24"/><circle cx="814" cy="168" r="86" fill="hsl(162, 68%, 55%)" opacity="0.30"/><circle cx="107" cy="209" r="23" fill="hsl(181, 68%, 55%)" opacity="0.36"/><circle cx="160" cy="250" r="30" fill="hsl(200, 68%, 55%)" opacity="0.12"/><circle cx="213" cy="291" r="37" fill="hsl(219, 68%, 55%)" opacity="0.18"/><circle cx="266" cy="332" r="44" fill="hsl(238, 68%, 55%)" opacity="0.24"/><circle cx="319" cy="373" r="51" fill="hsl(257, 68%, 55%)" opacity="0.30"/><circle cx="372" cy="414" r="58" fill="hsl(276, 68%, 55%)" opacity="0.36"/><circle cx="425" cy="455" r="65" fill="hsl(295, 68%, 55%)" opacity="0.12"/><circle cx="478" cy="496" r="72" fill="hsl(314, 68%, 55%)" opacity="0.18"/><circle cx="531" cy="537" r="79" fill="hsl(333, 68%, 55%)" opacity="0.24"/></g>
  <g><path d="M40 85 C 220 5, 420 175, 860 55" fill="none" stroke="hsl(90, 70%, 42%)" stroke-width="8" opacity="0.34" stroke-linecap="round"/><path d="M40 133 C 220 53, 420 223, 860 103" fill="none" stroke="hsl(103, 70%, 42%)" stroke-width="12" opacity="0.34" stroke-linecap="round"/><path d="M40 181 C 220 101, 420 271, 860 151" fill="none" stroke="hsl(116, 70%, 42%)" stroke-width="16" opacity="0.34" stroke-linecap="round"/><path d="M40 229 C 220 149, 420 319, 860 199" fill="none" stroke="hsl(129, 70%, 42%)" stroke-width="20" opacity="0.34" stroke-linecap="round"/><path d="M40 277 C 220 197, 420 367, 860 247" fill="none" stroke="hsl(142, 70%, 42%)" stroke-width="8" opacity="0.34" stroke-linecap="round"/><path d="M40 325 C 220 245, 420 415, 860 295" fill="none" stroke="hsl(155, 70%, 42%)" stroke-width="12" opacity="0.34" stroke-linecap="round"/><path d="M40 373 C 220 293, 420 463, 860 343" fill="none" stroke="hsl(168, 70%, 42%)" stroke-width="16" opacity="0.34" stroke-linecap="round"/><path d="M40 421 C 220 341, 420 511, 860 391" fill="none" stroke="hsl(181, 70%, 42%)" stroke-width="20" opacity="0.34" stroke-linecap="round"/><path d="M40 469 C 220 389, 420 559, 860 439" fill="none" stroke="hsl(194, 70%, 42%)" stroke-width="8" opacity="0.34" stroke-linecap="round"/><path d="M40 517 C 220 437, 420 607, 860 487" fill="none" stroke="hsl(207, 70%, 42%)" stroke-width="12" opacity="0.34" stroke-linecap="round"/></g>
  <rect x="42" y="42" width="816" height="536" fill="none" stroke="rgba(255,255,255,.75)" stroke-width="10"/>
  <rect x="64" y="64" width="772" height="492" fill="none" stroke="rgba(20,20,20,.22)" stroke-width="2"/>
  <text x="72" y="540" font-family="Georgia, serif" font-size="34" fill="rgba(20,20,20,.72)">White Roses</text>
</svg>