<svg xmlns="http://www.w3.org/2000/svg" width="900" height="620" viewBox="0 0 900 620" role="img" aria-label="Desert Song">
  <defs>
    <linearGradient id="g" x1="0" y1="0" x2="1" y2="1">
      <stop offset="0%" stop-color="hsl(343, 65%, 84%)"/>
      <stop offset="52%" stop-color="hsl(63, 60%, 62%)"/>
      <stop offset="100%" stop-color="hsl(143, 58%, 38%)"/>
    </linearGradient>
    <filter id="paper">
      <feTurbulence type="fractalNoise" baseFrequency="0.9" numOctaves="3" stitchTiles="stitch"/>
      <feColorMatrix type="saturate" values="0"/>
      <feComponentTransfer><feFuncA type="table" tableValues="0 0.18"/></feComponentTransfer>
      <feBlend mode="multiply" in2="SourceGraphic"/>
    </filter>
  </defs>
  <rect width="900" height="620" fill="url(#g)"/>
  <g filter="url(#paper)"><rect width="900" height="620" fill="#fff" opacity="0.25"/></g>
  <g><circle cx="669" cy="101" r="39" fill="hsl(343, 68%, 55%)" opacity="0.12"/><circle cx="722" cy="142" r="46" fill="hsl(2, 68%, 55%)" opacity="0.18"/><circle cx="775" cy="183" r="53" fill="hsl(21, 68%, 55%)" opacity="0.24"/><circle cx="828" cy="224" r="60" fill="hsl(40, 68%, 55%)" opacity="0.30"/><circle cx="121" cy="265" r="67" fill="hsl(59, 68%, 55%)" opacity="0.36"/><circle cx="174" cy="306" r="74" fill="hsl(78, 68%, 55%)" opacity="0.12"/><circle cx="227" cy="347" r="81" fill="hsl(97, 68%, 55%)" opacity="0.18"/><circle cx="280" cy="388" r="88" fill="hsl(116, 68%, 55%)" opacity="0.24"/><circle cx="333" cy="429" r="25" fill="hsl(135, 68%, 55%)" opacity="0.30"/><circle cx="386" cy="470" r="32" fill="hsl(154, 68%, 55%)" opacity="0.36"/><circle cx="439" cy="511" r="39" fill="hsl(173, 68%, 55%)" opacity="0.12"/><circle cx="492" cy="552" r="46" fill="hsl(192, 68%, 55%)" opacity="0.18"/><circle cx="545" cy="73" r="53" fill="hsl(211, 68%, 55%)" opacity="0.24"/><circle cx="598" cy="114" r="60" fill="hsl(230, 68%, 55%)" opacity="0.30"/><circle cx="651" cy="155" r="67" fill="hsl(249, 68%, 55%)" opacity="0.36"/><circle cx="704" cy="196" r="74" fill="hsl(268, 68%, 55%)" opacity="0.12"/><circle cx="757" cy="237" r="81" fill="hsl(287, 68%, 55%)" opacity="0.18"/><circle cx="810" cy="278" r="88" fill="hsl(306, 68%, 55%)" opacity="0.24"/></g>
  <g><path d="M40 87 C 220 7, 420 177, 860 57" fill="none" stroke="hsl(63, 70%, 42%)" stroke-width="8" opacity="0.34" stroke-linecap="round"/><path d="M40 135 C 220 55, 420 225, 860 105" fill="none" stroke="hsl(76, 70%, 42%)" stroke-width="12" opacity="0.34" stroke-linecap="round"/><path d="M40 183 C 220 103, 420 273, 860 153" fill="none" stroke="hsl(89, 70%, 42%)" stroke-width="16" opacity="0.34" stroke-linecap="round"/><path d="M40 231 C 220 151, 420 321, 860 201" fill="none" stroke="hsl(102, 70%, 42%)" stroke-width="20" opacity="0.34" stroke-linecap="round"/><path d="M40 279 C 220 199, 420 369, 860 249" fill="none" stroke="hsl(115, 70%, 42%)" stroke-width="8" opacity="0.34" stroke-linecap="round"/><path d="M40 327 C 220 247, 420 417, 860 297" fill="none" stroke="hsl(128, 70%, 42%)" stroke-width="12" opacity="0.34" stroke-linecap="round"/><path d="M40 375 C 220 295, 420 465, 860 345" fill="none" stroke="hsl(141, 70%, 42%)" stroke-width="16" opacity="0.34" stroke-linecap="round"/><path d="M40 423 C 220 343, 420 513, 860 393" fill="none" stroke="hsl(154, 70%, 42%)" stroke-width="20" opacity="0.34" stroke-linecap="round"/><path d="M40 471 C 220 391, 420 561, 860 441" fill="none" stroke="hsl(167, 70%, 42%)" stroke-width="8" opacity="0.34" stroke-linecap="round"/><path d="M40 519 C 220 439, 420 609, 860 489" fill="none" stroke="hsl(180, 70%, 42%)" stroke-width="12" opacity="0.34" stroke-linecap="round"/></g>
  <rect x="42" y="42" width="816" height="536" fill="none" stroke="rgba(255,255,255,.75)" stroke-width="10"/>
  <rect x="64" y="64" width="772" height="492" fill="none" stroke="rgba(20,20,20,.22)" stroke-width="2"/>
  <text x="72" y="540" font-family="Georgia, serif" font-size="34" fill="rgba(20,20,20,.72)">Desert Song</text>
</svg>