<svg xmlns="http://www.w3.org/2000/svg" width="900" height="620" viewBox="0 0 900 620" role="img" aria-label="Green Window">
  <defs>
    <linearGradient id="g" x1="0" y1="0" x2="1" y2="1">
      <stop offset="0%" stop-color="hsl(20, 65%, 84%)"/>
      <stop offset="52%" stop-color="hsl(100, 60%, 62%)"/>
      <stop offset="100%" stop-color="hsl(180, 58%, 38%)"/>
    </linearGradient>
    <filter id="paper">
      <feTurbulence type="fractalNoise" baseFrequency="0.9" numOctaves="3" stitchTiles="stitch"/>
      <feColorMatrix type="saturate" values="0"/>
      <feComponentTransfer><feFuncA type="table" tableValues="0 0.18"/></feComponentTransfer>
      <feBlend mode="multiply" in2="SourceGraphic"/>
    </filter>
  </defs>
  <rect width="900" height="620" fill="url(#g)"/>
  <g filter="url(#paper)"><rect width="900" height="620" fill="#fff" opacity="0.25"/></g>
  <g><circle cx="700" cy="130" r="40" fill="hsl(20, 68%, 55%)" opacity="0.12"/><circle cx="753" cy="171" r="47" fill="hsl(39, 68%, 55%)" opacity="0.18"/><circle cx="806" cy="212" r="54" fill="hsl(58, 68%, 55%)" opacity="0.24"/><circle cx="99" cy="253" r="61" fill="hsl(77, 68%, 55%)" opacity="0.30"/><circle cx="152" cy="294" r="68" fill="hsl(96, 68%, 55%)" opacity="0.36"/><circle cx="205" cy="335" r="75" fill="hsl(115, 68%, 55%)" opacity="0.12"/><circle cx="258" cy="376" r="82" fill="hsl(134, 68%, 55%)" opacity="0.18"/><circle cx="311" cy="417" r="89" fill="hsl(153, 68%, 55%)" opacity="0.24"/><circle cx="364" cy="458" r="26" fill="hsl(172, 68%, 55%)" opacity="0.30"/><circle cx="417" cy="499" r="33" fill="hsl(191, 68%, 55%)" opacity="0.36"/><circle cx="470" cy="540" r="40" fill="hsl(210, 68%, 55%)" opacity="0.12"/><circle cx="523" cy="581" r="47" fill="hsl(229, 68%, 55%)" opacity="0.18"/><circle cx="576" cy="102" r="54" fill="hsl(248, 68%, 55%)" opacity="0.24"/><circle cx="629" cy="143" r="61" fill="hsl(267, 68%, 55%)" opacity="0.30"/><circle cx="682" cy="184" r="68" fill="hsl(286, 68%, 55%)" opacity="0.36"/><circle cx="735" cy="225" r="75" fill="hsl(305, 68%, 55%)" opacity="0.12"/><circle cx="788" cy="266" r="82" fill="hsl(324, 68%, 55%)" opacity="0.18"/><circle cx="81" cy="307" r="89" fill="hsl(343, 68%, 55%)" opacity="0.24"/></g>
  <g><path d="M40 90 C 220 10, 420 180, 860 60" fill="none" stroke="hsl(100, 70%, 42%)" stroke-width="8" opacity="0.34" stroke-linecap="round"/><path d="M40 138 C 220 58, 420 228, 860 108" fill="none" stroke="hsl(113, 70%, 42%)" stroke-width="12" opacity="0.34" stroke-linecap="round"/><path d="M40 186 C 220 106, 420 276, 860 156" fill="none" stroke="hsl(126, 70%, 42%)" stroke-width="16" opacity="0.34" stroke-linecap="round"/><path d="M40 234 C 220 154, 420 324, 860 204" fill="none" stroke="hsl(139, 70%, 42%)" stroke-width="20" opacity="0.34" stroke-linecap="round"/><path d="M40 282 C 220 202, 420 372, 860 252" fill="none" stroke="hsl(152, 70%, 42%)" stroke-width="8" opacity="0.34" stroke-linecap="round"/><path d="M40 330 C 220 250, 420 420, 860 300" fill="none" stroke="hsl(165, 70%, 42%)" stroke-width="12" opacity="0.34" stroke-linecap="round"/><path d="M40 378 C 220 298, 420 468, 860 348" fill="none" stroke="hsl(178, 70%, 42%)" stroke-width="16" opacity="0.34" stroke-linecap="round"/><path d="M40 426 C 220 346, 420 516, 860 396" fill="none" stroke="hsl(191, 70%, 42%)" stroke-width="20" opacity="0.34" stroke-linecap="round"/><path d="M40 474 C 220 394, 420 564, 860 444" fill="none" stroke="hsl(204, 70%, 42%)" stroke-width="8" opacity="0.34" stroke-linecap="round"/><path d="M40 522 C 220 442, 420 612, 860 492" fill="none" stroke="hsl(217, 70%, 42%)" stroke-width="12" opacity="0.34" stroke-linecap="round"/></g>
  <rect x="42" y="42" width="816" height="536" fill="none" stroke="rgba(255,255,255,.75)" stroke-width="10"/>
  <rect x="64" y="64" width="772" height="492" fill="none" stroke="rgba(20,20,20,.22)" stroke-width="2"/>
  <text x="72" y="540" font-family="Georgia, serif" font-size="34" fill="rgba(20,20,20,.72)">Green Window</text>
</svg>