<svg xmlns="http://www.w3.org/2000/svg" width="900" height="620" viewBox="0 0 900 620" role="img" aria-label="Quiet Meadow">
  <defs>
    <linearGradient id="g" x1="0" y1="0" x2="1" y2="1">
      <stop offset="0%" stop-color="hsl(148, 65%, 84%)"/>
      <stop offset="52%" stop-color="hsl(228, 60%, 62%)"/>
      <stop offset="100%" stop-color="hsl(308, 58%, 38%)"/>
    </linearGradient>
    <filter id="paper">
      <feTurbulence type="fractalNoise" baseFrequency="0.9" numOctaves="3" stitchTiles="stitch"/>
      <feColorMatrix type="saturate" values="0"/>
      <feComponentTransfer><feFuncA type="table" tableValues="0 0.18"/></feComponentTransfer>
      <feBlend mode="multiply" in2="SourceGraphic"/>
    </filter>
  </defs>
  <rect width="900" height="620" fill="url(#g)"/>
  <g filter="url(#paper)"><rect width="900" height="620" fill="#fff" opacity="0.25"/></g>
  <g><circle cx="204" cy="186" r="24" fill="hsl(148, 68%, 55%)" opacity="0.12"/><circle cx="257" cy="227" r="31" fill="hsl(167, 68%, 55%)" opacity="0.18"/><circle cx="310" cy="268" r="38" fill="hsl(186, 68%, 55%)" opacity="0.24"/><circle cx="363" cy="309" r="45" fill="hsl(205, 68%, 55%)" opacity="0.30"/><circle cx="416" cy="350" r="52" fill="hsl(224, 68%, 55%)" opacity="0.36"/><circle cx="469" cy="391" r="59" fill="hsl(243, 68%, 55%)" opacity="0.12"/><circle cx="522" cy="432" r="66" fill="hsl(262, 68%, 55%)" opacity="0.18"/><circle cx="575" cy="473" r="73" fill="hsl(281, 68%, 55%)" opacity="0.24"/><circle cx="628" cy="514" r="80" fill="hsl(300, 68%, 55%)" opacity="0.30"/><circle cx="681" cy="555" r="87" fill="hsl(319, 68%, 55%)" opacity="0.36"/><circle cx="734" cy="76" r="24" fill="hsl(338, 68%, 55%)" opacity="0.12"/><circle cx="787" cy="117" r="31" fill="hsl(357, 68%, 55%)" opacity="0.18"/><circle cx="80" cy="158" r="38" fill="hsl(16, 68%, 55%)" opacity="0.24"/><circle cx="133" cy="199" r="45" fill="hsl(35, 68%, 55%)" opacity="0.30"/><circle cx="186" cy="240" r="52" fill="hsl(54, 68%, 55%)" opacity="0.36"/><circle cx="239" cy="281" r="59" fill="hsl(73, 68%, 55%)" opacity="0.12"/><circle cx="292" cy="322" r="66" fill="hsl(92, 68%, 55%)" opacity="0.18"/><circle cx="345" cy="363" r="73" fill="hsl(111, 68%, 55%)" opacity="0.24"/></g>
  <g><path d="M40 92 C 220 12, 420 182, 860 62" fill="none" stroke="hsl(228, 70%, 42%)" stroke-width="8" opacity="0.34" stroke-linecap="round"/><path d="M40 140 C 220 60, 420 230, 860 110" fill="none" stroke="hsl(241, 70%, 42%)" stroke-width="12" opacity="0.34" stroke-linecap="round"/><path d="M40 188 C 220 108, 420 278, 860 158" fill="none" stroke="hsl(254, 70%, 42%)" stroke-width="16" opacity="0.34" stroke-linecap="round"/><path d="M40 236 C 220 156, 420 326, 860 206" fill="none" stroke="hsl(267, 70%, 42%)" stroke-width="20" opacity="0.34" stroke-linecap="round"/><path d="M40 284 C 220 204, 420 374, 860 254" fill="none" stroke="hsl(280, 70%, 42%)" stroke-width="8" opacity="0.34" stroke-linecap="round"/><path d="M40 332 C 220 252, 420 422, 860 302" fill="none" stroke="hsl(293, 70%, 42%)" stroke-width="12" opacity="0.34" stroke-linecap="round"/><path d="M40 380 C 220 300, 420 470, 860 350" fill="none" stroke="hsl(306, 70%, 42%)" stroke-width="16" opacity="0.34" stroke-linecap="round"/><path d="M40 428 C 220 348, 420 518, 860 398" fill="none" stroke="hsl(319, 70%, 42%)" stroke-width="20" opacity="0.34" stroke-linecap="round"/><path d="M40 476 C 220 396, 420 566, 860 446" fill="none" stroke="hsl(332, 70%, 42%)" stroke-width="8" opacity="0.34" stroke-linecap="round"/><path d="M40 524 C 220 444, 420 614, 860 494" fill="none" stroke="hsl(345, 70%, 42%)" stroke-width="12" opacity="0.34" stroke-linecap="round"/></g>
  <rect x="42" y="42" width="816" height="536" fill="none" stroke="rgba(255,255,255,.75)" stroke-width="10"/>
  <rect x="64" y="64" width="772" height="492" fill="none" stroke="rgba(20,20,20,.22)" stroke-width="2"/>
  <text x="72" y="540" font-family="Georgia, serif" font-size="34" fill="rgba(20,20,20,.72)">Quiet Meadow</text>
</svg>