<svg xmlns="http://www.w3.org/2000/svg" width="900" height="620" viewBox="0 0 900 620" role="img" aria-label="Indigo Room">
  <defs>
    <linearGradient id="g" x1="0" y1="0" x2="1" y2="1">
      <stop offset="0%" stop-color="hsl(121, 65%, 84%)"/>
      <stop offset="52%" stop-color="hsl(201, 60%, 62%)"/>
      <stop offset="100%" stop-color="hsl(281, 58%, 38%)"/>
    </linearGradient>
    <filter id="paper">
      <feTurbulence type="fractalNoise" baseFrequency="0.9" numOctaves="3" stitchTiles="stitch"/>
      <feColorMatrix type="saturate" values="0"/>
      <feComponentTransfer><feFuncA type="table" tableValues="0 0.18"/></feComponentTransfer>
      <feBlend mode="multiply" in2="SourceGraphic"/>
    </filter>
  </defs>
  <rect width="900" height="620" fill="url(#g)"/>
  <g filter="url(#paper)"><rect width="900" height="620" fill="#fff" opacity="0.25"/></g>
  <g><circle cx="483" cy="447" r="33" fill="hsl(121, 68%, 55%)" opacity="0.12"/><circle cx="536" cy="488" r="40" fill="hsl(140, 68%, 55%)" opacity="0.18"/><circle cx="589" cy="529" r="47" fill="hsl(159, 68%, 55%)" opacity="0.24"/><circle cx="642" cy="570" r="54" fill="hsl(178, 68%, 55%)" opacity="0.30"/><circle cx="695" cy="91" r="61" fill="hsl(197, 68%, 55%)" opacity="0.36"/><circle cx="748" cy="132" r="68" fill="hsl(216, 68%, 55%)" opacity="0.12"/><circle cx="801" cy="173" r="75" fill="hsl(235, 68%, 55%)" opacity="0.18"/><circle cx="94" cy="214" r="82" fill="hsl(254, 68%, 55%)" opacity="0.24"/><circle cx="147" cy="255" r="89" fill="hsl(273, 68%, 55%)" opacity="0.30"/><circle cx="200" cy="296" r="26" fill="hsl(292, 68%, 55%)" opacity="0.36"/><circle cx="253" cy="337" r="33" fill="hsl(311, 68%, 55%)" opacity="0.12"/><circle cx="306" cy="378" r="40" fill="hsl(330, 68%, 55%)" opacity="0.18"/><circle cx="359" cy="419" r="47" fill="hsl(349, 68%, 55%)" opacity="0.24"/><circle cx="412" cy="460" r="54" fill="hsl(8, 68%, 55%)" opacity="0.30"/><circle cx="465" cy="501" r="61" fill="hsl(27, 68%, 55%)" opacity="0.36"/><circle cx="518" cy="542" r="68" fill="hsl(46, 68%, 55%)" opacity="0.12"/><circle cx="571" cy="583" r="75" fill="hsl(65, 68%, 55%)" opacity="0.18"/><circle cx="624" cy="104" r="82" fill="hsl(84, 68%, 55%)" opacity="0.24"/></g>
  <g><path d="M40 94 C 220 14, 420 184, 860 64" fill="none" stroke="hsl(201, 70%, 42%)" stroke-width="8" opacity="0.34" stroke-linecap="round"/><path d="M40 142 C 220 62, 420 232, 860 112" fill="none" stroke="hsl(214, 70%, 42%)" stroke-width="12" opacity="0.34" stroke-linecap="round"/><path d="M40 190 C 220 110, 420 280, 860 160" fill="none" stroke="hsl(227, 70%, 42%)" stroke-width="16" opacity="0.34" stroke-linecap="round"/><path d="M40 238 C 220 158, 420 328, 860 208" fill="none" stroke="hsl(240, 70%, 42%)" stroke-width="20" opacity="0.34" stroke-linecap="round"/><path d="M40 286 C 220 206, 420 376, 860 256" fill="none" stroke="hsl(253, 70%, 42%)" stroke-width="8" opacity="0.34" stroke-linecap="round"/><path d="M40 334 C 220 254, 420 424, 860 304" fill="none" stroke="hsl(266, 70%, 42%)" stroke-width="12" opacity="0.34" stroke-linecap="round"/><path d="M40 382 C 220 302, 420 472, 860 352" fill="none" stroke="hsl(279, 70%, 42%)" stroke-width="16" opacity="0.34" stroke-linecap="round"/><path d="M40 430 C 220 350, 420 520, 860 400" fill="none" stroke="hsl(292, 70%, 42%)" stroke-width="20" opacity="0.34" stroke-linecap="round"/><path d="M40 478 C 220 398, 420 568, 860 448" fill="none" stroke="hsl(305, 70%, 42%)" stroke-width="8" opacity="0.34" stroke-linecap="round"/><path d="M40 526 C 220 446, 420 616, 860 496" fill="none" stroke="hsl(318, 70%, 42%)" stroke-width="12" opacity="0.34" stroke-linecap="round"/></g>
  <rect x="42" y="42" width="816" height="536" fill="none" stroke="rgba(255,255,255,.75)" stroke-width="10"/>
  <rect x="64" y="64" width="772" height="492" fill="none" stroke="rgba(20,20,20,.22)" stroke-width="2"/>
  <text x="72" y="540" font-family="Georgia, serif" font-size="34" fill="rgba(20,20,20,.72)">Indigo Room</text>
</svg>