<svg xmlns="http://www.w3.org/2000/svg" width="900" height="620" viewBox="0 0 900 620" role="img" aria-label="Moon Garden">
  <defs>
    <linearGradient id="g" x1="0" y1="0" x2="1" y2="1">
      <stop offset="0%" stop-color="hsl(222, 65%, 84%)"/>
      <stop offset="52%" stop-color="hsl(302, 60%, 62%)"/>
      <stop offset="100%" stop-color="hsl(22, 58%, 38%)"/>
    </linearGradient>
    <filter id="paper">
      <feTurbulence type="fractalNoise" baseFrequency="0.9" numOctaves="3" stitchTiles="stitch"/>
      <feColorMatrix type="saturate" values="0"/>
      <feComponentTransfer><feFuncA type="table" tableValues="0 0.18"/></feComponentTransfer>
      <feBlend mode="multiply" in2="SourceGraphic"/>
    </filter>
  </defs>
  <rect width="900" height="620" fill="url(#g)"/>
  <g filter="url(#paper)"><rect width="900" height="620" fill="#fff" opacity="0.25"/></g>
  <g><circle cx="266" cy="244" r="26" fill="hsl(222, 68%, 55%)" opacity="0.12"/><circle cx="319" cy="285" r="33" fill="hsl(241, 68%, 55%)" opacity="0.18"/><circle cx="372" cy="326" r="40" fill="hsl(260, 68%, 55%)" opacity="0.24"/><circle cx="425" cy="367" r="47" fill="hsl(279, 68%, 55%)" opacity="0.30"/><circle cx="478" cy="408" r="54" fill="hsl(298, 68%, 55%)" opacity="0.36"/><circle cx="531" cy="449" r="61" fill="hsl(317, 68%, 55%)" opacity="0.12"/><circle cx="584" cy="490" r="68" fill="hsl(336, 68%, 55%)" opacity="0.18"/><circle cx="637" cy="531" r="75" fill="hsl(355, 68%, 55%)" opacity="0.24"/><circle cx="690" cy="572" r="82" fill="hsl(14, 68%, 55%)" opacity="0.30"/><circle cx="743" cy="93" r="89" fill="hsl(33, 68%, 55%)" opacity="0.36"/><circle cx="796" cy="134" r="26" fill="hsl(52, 68%, 55%)" opacity="0.12"/><circle cx="89" cy="175" r="33" fill="hsl(71, 68%, 55%)" opacity="0.18"/><circle cx="142" cy="216" r="40" fill="hsl(90, 68%, 55%)" opacity="0.24"/><circle cx="195" cy="257" r="47" fill="hsl(109, 68%, 55%)" opacity="0.30"/><circle cx="248" cy="298" r="54" fill="hsl(128, 68%, 55%)" opacity="0.36"/><circle cx="301" cy="339" r="61" fill="hsl(147, 68%, 55%)" opacity="0.12"/><circle cx="354" cy="380" r="68" fill="hsl(166, 68%, 55%)" opacity="0.18"/><circle cx="407" cy="421" r="75" fill="hsl(185, 68%, 55%)" opacity="0.24"/></g>
  <g><path d="M40 98 C 220 18, 420 188, 860 68" fill="none" stroke="hsl(302, 70%, 42%)" stroke-width="8" opacity="0.34" stroke-linecap="round"/><path d="M40 146 C 220 66, 420 236, 860 116" fill="none" stroke="hsl(315, 70%, 42%)" stroke-width="12" opacity="0.34" stroke-linecap="round"/><path d="M40 194 C 220 114, 420 284, 860 164" fill="none" stroke="hsl(328, 70%, 42%)" stroke-width="16" opacity="0.34" stroke-linecap="round"/><path d="M40 242 C 220 162, 420 332, 860 212" fill="none" stroke="hsl(341, 70%, 42%)" stroke-width="20" opacity="0.34" stroke-linecap="round"/><path d="M40 290 C 220 210, 420 380, 860 260" fill="none" stroke="hsl(354, 70%, 42%)" stroke-width="8" opacity="0.34" stroke-linecap="round"/><path d="M40 338 C 220 258, 420 428, 860 308" fill="none" stroke="hsl(7, 70%, 42%)" stroke-width="12" opacity="0.34" stroke-linecap="round"/><path d="M40 386 C 220 306, 420 476, 860 356" fill="none" stroke="hsl(20, 70%, 42%)" stroke-width="16" opacity="0.34" stroke-linecap="round"/><path d="M40 434 C 220 354, 420 524, 860 404" fill="none" stroke="hsl(33, 70%, 42%)" stroke-width="20" opacity="0.34" stroke-linecap="round"/><path d="M40 482 C 220 402, 420 572, 860 452" fill="none" stroke="hsl(46, 70%, 42%)" stroke-width="8" opacity="0.34" stroke-linecap="round"/><path d="M40 530 C 220 450, 420 620, 860 500" fill="none" stroke="hsl(59, 70%, 42%)" stroke-width="12" opacity="0.34" stroke-linecap="round"/></g>
  <rect x="42" y="42" width="816" height="536" fill="none" stroke="rgba(255,255,255,.75)" stroke-width="10"/>
  <rect x="64" y="64" width="772" height="492" fill="none" stroke="rgba(20,20,20,.22)" stroke-width="2"/>
  <text x="72" y="540" font-family="Georgia, serif" font-size="34" fill="rgba(20,20,20,.72)">Moon Garden</text>
</svg>