<svg xmlns="http://www.w3.org/2000/svg" viewBox="0 0 900 650" role="img" aria-label="Silent Violet Ridge abstract painting">
<rect width="900" height="650" fill="hsl(132, 48%, 50%)"/>
<rect x="124" y="172" width="276" height="206" rx="18" fill="hsl(132, 48%, 50%)" opacity="0.18"/>
<rect x="203" y="225" width="315" height="235" rx="34" fill="hsl(179, 60%, 57%)" opacity="0.26"/>
<rect x="282" y="278" width="354" height="264" rx="50" fill="hsl(226, 72%, 64%)" opacity="0.34"/>
<rect x="361" y="331" width="393" height="293" rx="66" fill="hsl(273, 48%, 71%)" opacity="0.42"/>
<rect x="440" y="384" width="152" height="92" rx="18" fill="hsl(320, 60%, 50%)" opacity="0.50"/>
<rect x="519" y="437" width="191" height="121" rx="34" fill="hsl(7, 72%, 57%)" opacity="0.18"/>
<rect x="598" y="490" width="230" height="150" rx="50" fill="hsl(54, 48%, 64%)" opacity="0.26"/>
<rect x="677" y="543" width="269" height="179" rx="66" fill="hsl(101, 60%, 71%)" opacity="0.34"/>
<rect x="756" y="596" width="308" height="208" rx="18" fill="hsl(132, 48%, 50%)" opacity="0.42"/>
<rect x="835" y="649" width="347" height="237" rx="34" fill="hsl(179, 60%, 57%)" opacity="0.50"/>
<rect x="14" y="52" width="386" height="266" rx="50" fill="hsl(226, 72%, 64%)" opacity="0.18"/>
<rect x="93" y="105" width="145" height="295" rx="66" fill="hsl(273, 48%, 71%)" opacity="0.26"/>
<rect x="172" y="158" width="184" height="94" rx="18" fill="hsl(320, 60%, 50%)" opacity="0.34"/>
<rect x="251" y="211" width="223" height="123" rx="34" fill="hsl(7, 72%, 57%)" opacity="0.42"/>
<rect x="330" y="264" width="262" height="152" rx="50" fill="hsl(54, 48%, 64%)" opacity="0.50"/>
<rect x="409" y="317" width="301" height="181" rx="66" fill="hsl(101, 60%, 71%)" opacity="0.18"/>
<polyline points="0,232 90,171 180,137 270,147 360,196 450,258 540,300 630,298 720,255 810,193 900,145" fill="none" stroke="hsl(226, 72%, 64%)" stroke-width="10" opacity="0.5" stroke-linecap="round"/>
<polyline points="0,219 90,185 180,195 270,244 360,306 450,348 540,346 630,303 720,241 810,193 900,186" fill="none" stroke="hsl(273, 48%, 71%)" stroke-width="13" opacity="0.5" stroke-linecap="round"/>
<polyline points="0,233 90,243 180,292 270,354 360,396 450,394 540,351 630,289 720,241 810,234 900,270" fill="none" stroke="hsl(320, 60%, 50%)" stroke-width="16" opacity="0.5" stroke-linecap="round"/>
<polyline points="0,291 90,340 180,402 270,444 360,442 450,399 540,337 630,289 720,282 810,318 900,380" fill="none" stroke="hsl(7, 72%, 57%)" stroke-width="19" opacity="0.5" stroke-linecap="round"/>
<polyline points="0,388 90,450 180,492 270,490 360,447 450,385 540,337 630,330 720,366 810,428 900,480" fill="none" stroke="hsl(54, 48%, 64%)" stroke-width="22" opacity="0.5" stroke-linecap="round"/>
<polyline points="0,498 90,540 180,538 270,495 360,433 450,385 540,378 630,414 720,476 810,528 900,544" fill="none" stroke="hsl(101, 60%, 71%)" stroke-width="25" opacity="0.5" stroke-linecap="round"/>
<rect x="0" y="0" width="900" height="650" fill="none" stroke="rgba(255,255,255,.7)" stroke-width="18"/>
</svg>