<svg xmlns="http://www.w3.org/2000/svg" viewBox="0 0 900 650" role="img" aria-label="Amber Window Dream abstract painting">
<rect width="900" height="650" fill="hsl(231, 48%, 50%)"/>
<rect x="217" y="301" width="393" height="293" rx="18" fill="hsl(231, 48%, 50%)" opacity="0.18"/>
<rect x="296" y="354" width="152" height="92" rx="34" fill="hsl(278, 60%, 57%)" opacity="0.26"/>
<rect x="375" y="407" width="191" height="121" rx="50" fill="hsl(325, 72%, 64%)" opacity="0.34"/>
<rect x="454" y="460" width="230" height="150" rx="66" fill="hsl(12, 48%, 71%)" opacity="0.42"/>
<rect x="533" y="513" width="269" height="179" rx="18" fill="hsl(59, 60%, 50%)" opacity="0.50"/>
<rect x="612" y="566" width="308" height="208" rx="34" fill="hsl(106, 72%, 57%)" opacity="0.18"/>
<rect x="691" y="619" width="347" height="237" rx="50" fill="hsl(153, 48%, 64%)" opacity="0.26"/>
<rect x="770" y="22" width="386" height="266" rx="66" fill="hsl(200, 60%, 71%)" opacity="0.34"/>
<rect x="849" y="75" width="145" height="295" rx="18" fill="hsl(231, 48%, 50%)" opacity="0.42"/>
<rect x="28" y="128" width="184" height="94" rx="34" fill="hsl(278, 60%, 57%)" opacity="0.50"/>
<rect x="107" y="181" width="223" height="123" rx="50" fill="hsl(325, 72%, 64%)" opacity="0.18"/>
<rect x="186" y="234" width="262" height="152" rx="66" fill="hsl(12, 48%, 71%)" opacity="0.26"/>
<rect x="265" y="287" width="301" height="181" rx="18" fill="hsl(59, 60%, 50%)" opacity="0.34"/>
<rect x="344" y="340" width="340" height="210" rx="34" fill="hsl(106, 72%, 57%)" opacity="0.42"/>
<rect x="423" y="393" width="379" height="239" rx="50" fill="hsl(153, 48%, 64%)" opacity="0.50"/>
<rect x="502" y="446" width="138" height="268" rx="66" fill="hsl(200, 60%, 71%)" opacity="0.18"/>
<polyline points="0,147 90,196 180,258 270,300 360,298 450,255 540,193 630,145 720,138 810,174 900,236" fill="none" stroke="hsl(325, 72%, 64%)" stroke-width="10" opacity="0.5" stroke-linecap="round"/>
<polyline points="0,244 90,306 180,348 270,346 360,303 450,241 540,193 630,186 720,222 810,284 900,336" fill="none" stroke="hsl(12, 48%, 71%)" stroke-width="13" opacity="0.5" stroke-linecap="round"/>
<polyline points="0,354 90,396 180,394 270,351 360,289 450,241 540,234 630,270 720,332 810,384 900,400" fill="none" stroke="hsl(59, 60%, 50%)" stroke-width="16" opacity="0.5" stroke-linecap="round"/>
<polyline points="0,444 90,442 180,399 270,337 360,289 450,282 540,318 630,380 720,432 810,448 900,419" fill="none" stroke="hsl(106, 72%, 57%)" stroke-width="19" opacity="0.5" stroke-linecap="round"/>
<polyline points="0,490 90,447 180,385 270,337 360,330 450,366 540,428 630,480 720,496 810,467 900,408" fill="none" stroke="hsl(153, 48%, 64%)" stroke-width="22" opacity="0.5" stroke-linecap="round"/>
<polyline points="0,495 90,433 180,385 270,378 360,414 450,476 540,528 630,544 720,515 810,456 900,399" fill="none" stroke="hsl(200, 60%, 71%)" stroke-width="25" opacity="0.5" stroke-linecap="round"/>
<rect x="0" y="0" width="900" height="650" fill="none" stroke="rgba(255,255,255,.7)" stroke-width="18"/>
</svg>