<svg xmlns="http://www.w3.org/2000/svg" viewBox="0 0 900 650" role="img" aria-label="Blue Harbor Morning abstract painting">
<rect width="900" height="650" fill="hsl(74, 45%, 48%)"/>
<rect x="58" y="122" width="194" height="126" rx="20" fill="hsl(74, 45%, 48%)" opacity="0.18"/>
<rect x="141" y="169" width="231" height="149" rx="36" fill="hsl(123, 57%, 56%)" opacity="0.27"/>
<rect x="224" y="216" width="268" height="172" rx="52" fill="hsl(172, 69%, 64%)" opacity="0.36"/>
<rect x="307" y="263" width="305" height="195" rx="68" fill="hsl(221, 45%, 72%)" opacity="0.45"/>
<rect x="390" y="310" width="342" height="218" rx="20" fill="hsl(270, 57%, 48%)" opacity="0.54"/>
<rect x="473" y="357" width="379" height="241" rx="36" fill="hsl(319, 69%, 56%)" opacity="0.18"/>
<rect x="556" y="404" width="156" height="264" rx="52" fill="hsl(8, 45%, 64%)" opacity="0.27"/>
<rect x="639" y="451" width="193" height="287" rx="68" fill="hsl(57, 57%, 72%)" opacity="0.36"/>
<rect x="722" y="498" width="230" height="90" rx="20" fill="hsl(74, 45%, 48%)" opacity="0.45"/>
<rect x="805" y="545" width="267" height="113" rx="36" fill="hsl(123, 57%, 56%)" opacity="0.54"/>
<rect x="888" y="592" width="304" height="136" rx="52" fill="hsl(172, 69%, 64%)" opacity="0.18"/>
<rect x="71" y="639" width="341" height="159" rx="68" fill="hsl(221, 45%, 72%)" opacity="0.27"/>
<rect x="154" y="36" width="378" height="182" rx="20" fill="hsl(270, 57%, 48%)" opacity="0.36"/>
<rect x="237" y="83" width="155" height="205" rx="36" fill="hsl(319, 69%, 56%)" opacity="0.45"/>
<polyline points="0,330 100,301 200,235 300,172 400,150 500,183 600,250 700,311 800,329 900,293" fill="none" stroke="hsl(221, 45%, 72%)" stroke-width="12" opacity="0.48" stroke-linecap="round"/>
<polyline points="0,343 100,277 200,214 300,192 400,225 500,292 600,353 700,371 800,335 900,266" fill="none" stroke="hsl(270, 57%, 48%)" stroke-width="16" opacity="0.48" stroke-linecap="round"/>
<polyline points="0,319 100,256 200,234 300,267 400,334 500,395 600,413 700,377 800,308 900,249" fill="none" stroke="hsl(319, 69%, 56%)" stroke-width="20" opacity="0.48" stroke-linecap="round"/>
<polyline points="0,298 100,276 200,309 300,376 400,437 500,455 600,419 700,350 800,291 900,278" fill="none" stroke="hsl(8, 45%, 64%)" stroke-width="24" opacity="0.48" stroke-linecap="round"/>
<polyline points="0,318 100,351 200,418 300,479 400,497 500,461 600,392 700,333 800,320 900,360" fill="none" stroke="hsl(57, 57%, 72%)" stroke-width="28" opacity="0.48" stroke-linecap="round"/>
<rect x="0" y="0" width="900" height="650" fill="none" stroke="rgba(255,255,255,.55)" stroke-width="16"/>
</svg>