<svg xmlns="http://www.w3.org/2000/svg" viewBox="0 0 900 650" role="img" aria-label="Cloud Break Horizon abstract painting">
<rect width="900" height="650" fill="hsl(269, 45%, 48%)"/>
<rect x="493" y="387" width="229" height="251" rx="20" fill="hsl(269, 45%, 48%)" opacity="0.18"/>
<rect x="576" y="434" width="266" height="274" rx="36" fill="hsl(318, 57%, 56%)" opacity="0.27"/>
<rect x="659" y="481" width="303" height="297" rx="52" fill="hsl(7, 69%, 64%)" opacity="0.36"/>
<rect x="742" y="528" width="340" height="100" rx="68" fill="hsl(56, 45%, 72%)" opacity="0.45"/>
<rect x="825" y="575" width="377" height="123" rx="20" fill="hsl(105, 57%, 48%)" opacity="0.54"/>
<rect x="8" y="622" width="154" height="146" rx="36" fill="hsl(154, 69%, 56%)" opacity="0.18"/>
<rect x="91" y="19" width="191" height="169" rx="52" fill="hsl(203, 45%, 64%)" opacity="0.27"/>
<rect x="174" y="66" width="228" height="192" rx="68" fill="hsl(252, 57%, 72%)" opacity="0.36"/>
<rect x="257" y="113" width="265" height="215" rx="20" fill="hsl(269, 45%, 48%)" opacity="0.45"/>
<rect x="340" y="160" width="302" height="238" rx="36" fill="hsl(318, 57%, 56%)" opacity="0.54"/>
<rect x="423" y="207" width="339" height="261" rx="52" fill="hsl(7, 69%, 64%)" opacity="0.18"/>
<rect x="506" y="254" width="376" height="284" rx="68" fill="hsl(56, 45%, 72%)" opacity="0.27"/>
<rect x="589" y="301" width="153" height="87" rx="20" fill="hsl(105, 57%, 48%)" opacity="0.36"/>
<rect x="672" y="348" width="190" height="110" rx="36" fill="hsl(154, 69%, 56%)" opacity="0.45"/>
<polyline points="0,317 100,327 200,284 300,214 400,160 500,155 600,201 700,271 800,322 900,324" fill="none" stroke="hsl(56, 45%, 72%)" stroke-width="12" opacity="0.48" stroke-linecap="round"/>
<polyline points="0,369 100,326 200,256 300,202 400,197 500,243 600,313 700,364 800,366 900,316" fill="none" stroke="hsl(105, 57%, 48%)" stroke-width="16" opacity="0.48" stroke-linecap="round"/>
<polyline points="0,368 100,298 200,244 300,239 400,285 500,355 600,406 700,408 800,358 900,288" fill="none" stroke="hsl(154, 69%, 56%)" stroke-width="20" opacity="0.48" stroke-linecap="round"/>
<polyline points="0,340 100,286 200,281 300,327 400,397 500,448 600,450 700,400 800,330 900,282" fill="none" stroke="hsl(203, 45%, 64%)" stroke-width="24" opacity="0.48" stroke-linecap="round"/>
<polyline points="0,328 100,323 200,369 300,439 400,490 500,492 600,442 700,372 800,324 900,326" fill="none" stroke="hsl(252, 57%, 72%)" stroke-width="28" opacity="0.48" stroke-linecap="round"/>
<rect x="0" y="0" width="900" height="650" fill="none" stroke="rgba(255,255,255,.55)" stroke-width="16"/>
</svg>