<svg xmlns="http://www.w3.org/2000/svg" viewBox="0 0 900 650" role="img" aria-label="Coral Sky Garden abstract painting">
<rect width="900" height="650" fill="hsl(165, 48%, 50%)"/>
<rect x="155" y="215" width="315" height="235" rx="18" fill="hsl(165, 48%, 50%)" opacity="0.18"/>
<rect x="234" y="268" width="354" height="264" rx="34" fill="hsl(212, 60%, 57%)" opacity="0.26"/>
<rect x="313" y="321" width="393" height="293" rx="50" fill="hsl(259, 72%, 64%)" opacity="0.34"/>
<rect x="392" y="374" width="152" height="92" rx="66" fill="hsl(306, 48%, 71%)" opacity="0.42"/>
<rect x="471" y="427" width="191" height="121" rx="18" fill="hsl(353, 60%, 50%)" opacity="0.50"/>
<rect x="550" y="480" width="230" height="150" rx="34" fill="hsl(40, 72%, 57%)" opacity="0.18"/>
<rect x="629" y="533" width="269" height="179" rx="50" fill="hsl(87, 48%, 64%)" opacity="0.26"/>
<rect x="708" y="586" width="308" height="208" rx="66" fill="hsl(134, 60%, 71%)" opacity="0.34"/>
<rect x="787" y="639" width="347" height="237" rx="18" fill="hsl(165, 48%, 50%)" opacity="0.42"/>
<rect x="866" y="42" width="386" height="266" rx="34" fill="hsl(212, 60%, 57%)" opacity="0.50"/>
<rect x="45" y="95" width="145" height="295" rx="50" fill="hsl(259, 72%, 64%)" opacity="0.18"/>
<rect x="124" y="148" width="184" height="94" rx="66" fill="hsl(306, 48%, 71%)" opacity="0.26"/>
<rect x="203" y="201" width="223" height="123" rx="18" fill="hsl(353, 60%, 50%)" opacity="0.34"/>
<rect x="282" y="254" width="262" height="152" rx="34" fill="hsl(40, 72%, 57%)" opacity="0.42"/>
<rect x="361" y="307" width="301" height="181" rx="50" fill="hsl(87, 48%, 64%)" opacity="0.50"/>
<rect x="440" y="360" width="340" height="210" rx="66" fill="hsl(134, 60%, 71%)" opacity="0.18"/>
<polyline points="0,171 90,137 180,147 270,196 360,258 450,300 540,298 630,255 720,193 810,145 900,138" fill="none" stroke="hsl(259, 72%, 64%)" stroke-width="10" opacity="0.5" stroke-linecap="round"/>
<polyline points="0,185 90,195 180,244 270,306 360,348 450,346 540,303 630,241 720,193 810,186 900,222" fill="none" stroke="hsl(306, 48%, 71%)" stroke-width="13" opacity="0.5" stroke-linecap="round"/>
<polyline points="0,243 90,292 180,354 270,396 360,394 450,351 540,289 630,241 720,234 810,270 900,332" fill="none" stroke="hsl(353, 60%, 50%)" stroke-width="16" opacity="0.5" stroke-linecap="round"/>
<polyline points="0,340 90,402 180,444 270,442 360,399 450,337 540,289 630,282 720,318 810,380 900,432" fill="none" stroke="hsl(40, 72%, 57%)" stroke-width="19" opacity="0.5" stroke-linecap="round"/>
<polyline points="0,450 90,492 180,490 270,447 360,385 450,337 540,330 630,366 720,428 810,480 900,496" fill="none" stroke="hsl(87, 48%, 64%)" stroke-width="22" opacity="0.5" stroke-linecap="round"/>
<polyline points="0,540 90,538 180,495 270,433 360,385 450,378 540,414 630,476 720,528 810,544 900,515" fill="none" stroke="hsl(134, 60%, 71%)" stroke-width="25" opacity="0.5" stroke-linecap="round"/>
<rect x="0" y="0" width="900" height="650" fill="none" stroke="rgba(255,255,255,.7)" stroke-width="18"/>
</svg>