<svg xmlns="http://www.w3.org/2000/svg" viewBox="0 0 900 650" role="img" aria-label="Green Meadow Noon abstract painting">
<rect width="900" height="650" fill="hsl(232, 45%, 48%)"/>
<rect x="464" y="326" width="192" height="228" rx="20" fill="hsl(232, 45%, 48%)" opacity="0.18"/>
<rect x="547" y="373" width="229" height="251" rx="36" fill="hsl(281, 57%, 56%)" opacity="0.27"/>
<rect x="630" y="420" width="266" height="274" rx="52" fill="hsl(330, 69%, 64%)" opacity="0.36"/>
<rect x="713" y="467" width="303" height="297" rx="68" fill="hsl(19, 45%, 72%)" opacity="0.45"/>
<rect x="796" y="514" width="340" height="100" rx="20" fill="hsl(68, 57%, 48%)" opacity="0.54"/>
<rect x="879" y="561" width="377" height="123" rx="36" fill="hsl(117, 69%, 56%)" opacity="0.18"/>
<rect x="62" y="608" width="154" height="146" rx="52" fill="hsl(166, 45%, 64%)" opacity="0.27"/>
<rect x="145" y="5" width="191" height="169" rx="68" fill="hsl(215, 57%, 72%)" opacity="0.36"/>
<rect x="228" y="52" width="228" height="192" rx="20" fill="hsl(232, 45%, 48%)" opacity="0.45"/>
<rect x="311" y="99" width="265" height="215" rx="36" fill="hsl(281, 57%, 56%)" opacity="0.54"/>
<rect x="394" y="146" width="302" height="238" rx="52" fill="hsl(330, 69%, 64%)" opacity="0.18"/>
<rect x="477" y="193" width="339" height="261" rx="68" fill="hsl(19, 45%, 72%)" opacity="0.27"/>
<rect x="560" y="240" width="376" height="284" rx="20" fill="hsl(68, 57%, 48%)" opacity="0.36"/>
<rect x="643" y="287" width="153" height="87" rx="36" fill="hsl(117, 69%, 56%)" opacity="0.45"/>
<polyline points="0,261 100,317 200,327 300,284 400,214 500,160 600,155 700,201 800,271 900,322" fill="none" stroke="hsl(19, 45%, 72%)" stroke-width="12" opacity="0.48" stroke-linecap="round"/>
<polyline points="0,359 100,369 200,326 300,256 400,202 500,197 600,243 700,313 800,364 900,366" fill="none" stroke="hsl(68, 57%, 48%)" stroke-width="16" opacity="0.48" stroke-linecap="round"/>
<polyline points="0,411 100,368 200,298 300,244 400,239 500,285 600,355 700,406 800,408 900,358" fill="none" stroke="hsl(117, 69%, 56%)" stroke-width="20" opacity="0.48" stroke-linecap="round"/>
<polyline points="0,410 100,340 200,286 300,281 400,327 500,397 600,448 700,450 800,400 900,330" fill="none" stroke="hsl(166, 45%, 64%)" stroke-width="24" opacity="0.48" stroke-linecap="round"/>
<polyline points="0,382 100,328 200,323 300,369 400,439 500,490 600,492 700,442 800,372 900,324" fill="none" stroke="hsl(215, 57%, 72%)" stroke-width="28" opacity="0.48" stroke-linecap="round"/>
<rect x="0" y="0" width="900" height="650" fill="none" stroke="rgba(255,255,255,.55)" stroke-width="16"/>
</svg>