<svg xmlns="http://www.w3.org/2000/svg" viewBox="0 0 900 650" role="img" aria-label="Golden Field Path abstract painting">
<rect width="900" height="650" fill="hsl(99, 48%, 50%)"/>
<rect x="93" y="129" width="237" height="177" rx="18" fill="hsl(99, 48%, 50%)" opacity="0.18"/>
<rect x="172" y="182" width="276" height="206" rx="34" fill="hsl(146, 60%, 57%)" opacity="0.26"/>
<rect x="251" y="235" width="315" height="235" rx="50" fill="hsl(193, 72%, 64%)" opacity="0.34"/>
<rect x="330" y="288" width="354" height="264" rx="66" fill="hsl(240, 48%, 71%)" opacity="0.42"/>
<rect x="409" y="341" width="393" height="293" rx="18" fill="hsl(287, 60%, 50%)" opacity="0.50"/>
<rect x="488" y="394" width="152" height="92" rx="34" fill="hsl(334, 72%, 57%)" opacity="0.18"/>
<rect x="567" y="447" width="191" height="121" rx="50" fill="hsl(21, 48%, 64%)" opacity="0.26"/>
<rect x="646" y="500" width="230" height="150" rx="66" fill="hsl(68, 60%, 71%)" opacity="0.34"/>
<rect x="725" y="553" width="269" height="179" rx="18" fill="hsl(99, 48%, 50%)" opacity="0.42"/>
<rect x="804" y="606" width="308" height="208" rx="34" fill="hsl(146, 60%, 57%)" opacity="0.50"/>
<rect x="883" y="9" width="347" height="237" rx="50" fill="hsl(193, 72%, 64%)" opacity="0.18"/>
<rect x="62" y="62" width="386" height="266" rx="66" fill="hsl(240, 48%, 71%)" opacity="0.26"/>
<rect x="141" y="115" width="145" height="295" rx="18" fill="hsl(287, 60%, 50%)" opacity="0.34"/>
<rect x="220" y="168" width="184" height="94" rx="34" fill="hsl(334, 72%, 57%)" opacity="0.42"/>
<rect x="299" y="221" width="223" height="123" rx="50" fill="hsl(21, 48%, 64%)" opacity="0.50"/>
<rect x="378" y="274" width="262" height="152" rx="66" fill="hsl(68, 60%, 71%)" opacity="0.18"/>
<polyline points="0,286 90,232 180,171 270,137 360,147 450,196 540,258 630,300 720,298 810,255 900,193" fill="none" stroke="hsl(193, 72%, 64%)" stroke-width="10" opacity="0.5" stroke-linecap="round"/>
<polyline points="0,280 90,219 180,185 270,195 360,244 450,306 540,348 630,346 720,303 810,241 900,193" fill="none" stroke="hsl(240, 48%, 71%)" stroke-width="13" opacity="0.5" stroke-linecap="round"/>
<polyline points="0,267 90,233 180,243 270,292 360,354 450,396 540,394 630,351 720,289 810,241 900,234" fill="none" stroke="hsl(287, 60%, 50%)" stroke-width="16" opacity="0.5" stroke-linecap="round"/>
<polyline points="0,281 90,291 180,340 270,402 360,444 450,442 540,399 630,337 720,289 810,282 900,318" fill="none" stroke="hsl(334, 72%, 57%)" stroke-width="19" opacity="0.5" stroke-linecap="round"/>
<polyline points="0,339 90,388 180,450 270,492 360,490 450,447 540,385 630,337 720,330 810,366 900,428" fill="none" stroke="hsl(21, 48%, 64%)" stroke-width="22" opacity="0.5" stroke-linecap="round"/>
<polyline points="0,436 90,498 180,540 270,538 360,495 450,433 540,385 630,378 720,414 810,476 900,528" fill="none" stroke="hsl(68, 60%, 71%)" stroke-width="25" opacity="0.5" stroke-linecap="round"/>
<rect x="0" y="0" width="900" height="650" fill="none" stroke="rgba(255,255,255,.7)" stroke-width="18"/>
</svg>