<svg xmlns="http://www.w3.org/2000/svg" viewBox="0 0 900 650" role="img" aria-label="Lavender City Walk abstract painting">
<rect width="900" height="650" fill="hsl(234, 48%, 50%)"/>
<rect x="558" y="124" width="262" height="152" rx="18" fill="hsl(234, 48%, 50%)" opacity="0.18"/>
<rect x="637" y="177" width="301" height="181" rx="34" fill="hsl(281, 60%, 57%)" opacity="0.26"/>
<rect x="716" y="230" width="340" height="210" rx="50" fill="hsl(328, 72%, 64%)" opacity="0.34"/>
<rect x="795" y="283" width="379" height="239" rx="66" fill="hsl(15, 48%, 71%)" opacity="0.42"/>
<rect x="874" y="336" width="138" height="268" rx="18" fill="hsl(62, 60%, 50%)" opacity="0.50"/>
<rect x="53" y="389" width="177" height="297" rx="34" fill="hsl(109, 72%, 57%)" opacity="0.18"/>
<rect x="132" y="442" width="216" height="96" rx="50" fill="hsl(156, 48%, 64%)" opacity="0.26"/>
<rect x="211" y="495" width="255" height="125" rx="66" fill="hsl(203, 60%, 71%)" opacity="0.34"/>
<rect x="290" y="548" width="294" height="154" rx="18" fill="hsl(234, 48%, 50%)" opacity="0.42"/>
<rect x="369" y="601" width="333" height="183" rx="34" fill="hsl(281, 60%, 57%)" opacity="0.50"/>
<rect x="448" y="4" width="372" height="212" rx="50" fill="hsl(328, 72%, 64%)" opacity="0.18"/>
<rect x="527" y="57" width="131" height="241" rx="66" fill="hsl(15, 48%, 71%)" opacity="0.26"/>
<rect x="606" y="110" width="170" height="270" rx="18" fill="hsl(62, 60%, 50%)" opacity="0.34"/>
<rect x="685" y="163" width="209" height="299" rx="34" fill="hsl(109, 72%, 57%)" opacity="0.42"/>
<rect x="764" y="216" width="248" height="98" rx="50" fill="hsl(156, 48%, 64%)" opacity="0.50"/>
<rect x="843" y="269" width="287" height="127" rx="66" fill="hsl(203, 60%, 71%)" opacity="0.18"/>
<polyline points="0,288 90,304 180,275 270,216 360,159 450,135 540,156 630,212 720,271 810,304 900,291" fill="none" stroke="hsl(328, 72%, 64%)" stroke-width="10" opacity="0.5" stroke-linecap="round"/>
<polyline points="0,352 90,323 180,264 270,207 360,183 450,204 540,260 630,319 720,352 810,339 900,288" fill="none" stroke="hsl(15, 48%, 71%)" stroke-width="13" opacity="0.5" stroke-linecap="round"/>
<polyline points="0,371 90,312 180,255 270,231 360,252 450,308 540,367 630,400 720,387 810,336 900,275" fill="none" stroke="hsl(62, 60%, 50%)" stroke-width="16" opacity="0.5" stroke-linecap="round"/>
<polyline points="0,360 90,303 180,279 270,300 360,356 450,415 540,448 630,435 720,384 810,323 900,283" fill="none" stroke="hsl(109, 72%, 57%)" stroke-width="19" opacity="0.5" stroke-linecap="round"/>
<polyline points="0,351 90,327 180,348 270,404 360,463 450,496 540,483 630,432 720,371 810,331 900,335" fill="none" stroke="hsl(156, 48%, 64%)" stroke-width="22" opacity="0.5" stroke-linecap="round"/>
<polyline points="0,375 90,396 180,452 270,511 360,544 450,531 540,480 630,419 720,379 810,383 900,428" fill="none" stroke="hsl(203, 60%, 71%)" stroke-width="25" opacity="0.5" stroke-linecap="round"/>
<rect x="0" y="0" width="900" height="650" fill="none" stroke="rgba(255,255,255,.7)" stroke-width="18"/>
</svg>