<svg xmlns="http://www.w3.org/2000/svg" viewBox="0 0 900 650" role="img" aria-label="Indigo Market Evening abstract painting">
<rect width="900" height="650" fill="hsl(47, 45%, 48%)"/>
<rect x="319" y="21" width="267" height="113" rx="20" fill="hsl(47, 45%, 48%)" opacity="0.18"/>
<rect x="402" y="68" width="304" height="136" rx="36" fill="hsl(96, 57%, 56%)" opacity="0.27"/>
<rect x="485" y="115" width="341" height="159" rx="52" fill="hsl(145, 69%, 64%)" opacity="0.36"/>
<rect x="568" y="162" width="378" height="182" rx="68" fill="hsl(194, 45%, 72%)" opacity="0.45"/>
<rect x="651" y="209" width="155" height="205" rx="20" fill="hsl(243, 57%, 48%)" opacity="0.54"/>
<rect x="734" y="256" width="192" height="228" rx="36" fill="hsl(292, 69%, 56%)" opacity="0.18"/>
<rect x="817" y="303" width="229" height="251" rx="52" fill="hsl(341, 45%, 64%)" opacity="0.27"/>
<rect x="0" y="350" width="266" height="274" rx="68" fill="hsl(30, 57%, 72%)" opacity="0.36"/>
<rect x="83" y="397" width="303" height="297" rx="20" fill="hsl(47, 45%, 48%)" opacity="0.45"/>
<rect x="166" y="444" width="340" height="100" rx="36" fill="hsl(96, 57%, 56%)" opacity="0.54"/>
<rect x="249" y="491" width="377" height="123" rx="52" fill="hsl(145, 69%, 64%)" opacity="0.18"/>
<rect x="332" y="538" width="154" height="146" rx="68" fill="hsl(194, 45%, 72%)" opacity="0.27"/>
<rect x="415" y="585" width="191" height="169" rx="20" fill="hsl(243, 57%, 48%)" opacity="0.36"/>
<rect x="498" y="632" width="228" height="192" rx="36" fill="hsl(292, 69%, 56%)" opacity="0.45"/>
<polyline points="0,293 100,224 200,165 300,152 400,192 500,261 600,317 700,327 800,284 900,214" fill="none" stroke="hsl(194, 45%, 72%)" stroke-width="12" opacity="0.48" stroke-linecap="round"/>
<polyline points="0,266 100,207 200,194 300,234 400,303 500,359 600,369 700,326 800,256 900,202" fill="none" stroke="hsl(243, 57%, 48%)" stroke-width="16" opacity="0.48" stroke-linecap="round"/>
<polyline points="0,249 100,236 200,276 300,345 400,401 500,411 600,368 700,298 800,244 900,239" fill="none" stroke="hsl(292, 69%, 56%)" stroke-width="20" opacity="0.48" stroke-linecap="round"/>
<polyline points="0,278 100,318 200,387 300,443 400,453 500,410 600,340 700,286 800,281 900,327" fill="none" stroke="hsl(341, 45%, 64%)" stroke-width="24" opacity="0.48" stroke-linecap="round"/>
<polyline points="0,360 100,429 200,485 300,495 400,452 500,382 600,328 700,323 800,369 900,439" fill="none" stroke="hsl(30, 57%, 72%)" stroke-width="28" opacity="0.48" stroke-linecap="round"/>
<rect x="0" y="0" width="900" height="650" fill="none" stroke="rgba(255,255,255,.55)" stroke-width="16"/>
</svg>