<svg xmlns="http://www.w3.org/2000/svg" viewBox="0 0 900 650" role="img" aria-label="Blue Harbor Morning abstract painting">
<rect width="900" height="650" fill="hsl(66, 48%, 50%)"/>
<rect x="62" y="86" width="198" height="148" rx="18" fill="hsl(66, 48%, 50%)" opacity="0.18"/>
<rect x="141" y="139" width="237" height="177" rx="34" fill="hsl(113, 60%, 57%)" opacity="0.26"/>
<rect x="220" y="192" width="276" height="206" rx="50" fill="hsl(160, 72%, 64%)" opacity="0.34"/>
<rect x="299" y="245" width="315" height="235" rx="66" fill="hsl(207, 48%, 71%)" opacity="0.42"/>
<rect x="378" y="298" width="354" height="264" rx="18" fill="hsl(254, 60%, 50%)" opacity="0.50"/>
<rect x="457" y="351" width="393" height="293" rx="34" fill="hsl(301, 72%, 57%)" opacity="0.18"/>
<rect x="536" y="404" width="152" height="92" rx="50" fill="hsl(348, 48%, 64%)" opacity="0.26"/>
<rect x="615" y="457" width="191" height="121" rx="66" fill="hsl(35, 60%, 71%)" opacity="0.34"/>
<rect x="694" y="510" width="230" height="150" rx="18" fill="hsl(66, 48%, 50%)" opacity="0.42"/>
<rect x="773" y="563" width="269" height="179" rx="34" fill="hsl(113, 60%, 57%)" opacity="0.50"/>
<rect x="852" y="616" width="308" height="208" rx="50" fill="hsl(160, 72%, 64%)" opacity="0.18"/>
<rect x="31" y="19" width="347" height="237" rx="66" fill="hsl(207, 48%, 71%)" opacity="0.26"/>
<rect x="110" y="72" width="386" height="266" rx="18" fill="hsl(254, 60%, 50%)" opacity="0.34"/>
<rect x="189" y="125" width="145" height="295" rx="34" fill="hsl(301, 72%, 57%)" opacity="0.42"/>
<rect x="268" y="178" width="184" height="94" rx="50" fill="hsl(348, 48%, 64%)" opacity="0.50"/>
<rect x="347" y="231" width="223" height="123" rx="66" fill="hsl(35, 60%, 71%)" opacity="0.18"/>
<polyline points="0,305 90,286 180,232 270,171 360,137 450,147 540,196 630,258 720,300 810,298 900,255" fill="none" stroke="hsl(160, 72%, 64%)" stroke-width="10" opacity="0.5" stroke-linecap="round"/>
<polyline points="0,334 90,280 180,219 270,185 360,195 450,244 540,306 630,348 720,346 810,303 900,241" fill="none" stroke="hsl(207, 48%, 71%)" stroke-width="13" opacity="0.5" stroke-linecap="round"/>
<polyline points="0,328 90,267 180,233 270,243 360,292 450,354 540,396 630,394 720,351 810,289 900,241" fill="none" stroke="hsl(254, 60%, 50%)" stroke-width="16" opacity="0.5" stroke-linecap="round"/>
<polyline points="0,315 90,281 180,291 270,340 360,402 450,444 540,442 630,399 720,337 810,289 900,282" fill="none" stroke="hsl(301, 72%, 57%)" stroke-width="19" opacity="0.5" stroke-linecap="round"/>
<polyline points="0,329 90,339 180,388 270,450 360,492 450,490 540,447 630,385 720,337 810,330 900,366" fill="none" stroke="hsl(348, 48%, 64%)" stroke-width="22" opacity="0.5" stroke-linecap="round"/>
<polyline points="0,387 90,436 180,498 270,540 360,538 450,495 540,433 630,385 720,378 810,414 900,476" fill="none" stroke="hsl(35, 60%, 71%)" stroke-width="25" opacity="0.5" stroke-linecap="round"/>
<rect x="0" y="0" width="900" height="650" fill="none" stroke="rgba(255,255,255,.7)" stroke-width="18"/>
</svg>