<svg xmlns="http://www.w3.org/2000/svg" viewBox="0 0 900 650" role="img" aria-label="Desert Bloom Trail abstract painting">
<rect width="900" height="650" fill="hsl(69, 48%, 50%)"/>
<rect x="403" y="559" width="347" height="237" rx="18" fill="hsl(69, 48%, 50%)" opacity="0.18"/>
<rect x="482" y="612" width="386" height="266" rx="34" fill="hsl(116, 60%, 57%)" opacity="0.26"/>
<rect x="561" y="15" width="145" height="295" rx="50" fill="hsl(163, 72%, 64%)" opacity="0.34"/>
<rect x="640" y="68" width="184" height="94" rx="66" fill="hsl(210, 48%, 71%)" opacity="0.42"/>
<rect x="719" y="121" width="223" height="123" rx="18" fill="hsl(257, 60%, 50%)" opacity="0.50"/>
<rect x="798" y="174" width="262" height="152" rx="34" fill="hsl(304, 72%, 57%)" opacity="0.18"/>
<rect x="877" y="227" width="301" height="181" rx="50" fill="hsl(351, 48%, 64%)" opacity="0.26"/>
<rect x="56" y="280" width="340" height="210" rx="66" fill="hsl(38, 60%, 71%)" opacity="0.34"/>
<rect x="135" y="333" width="379" height="239" rx="18" fill="hsl(69, 48%, 50%)" opacity="0.42"/>
<rect x="214" y="386" width="138" height="268" rx="34" fill="hsl(116, 60%, 57%)" opacity="0.50"/>
<rect x="293" y="439" width="177" height="297" rx="50" fill="hsl(163, 72%, 64%)" opacity="0.18"/>
<rect x="372" y="492" width="216" height="96" rx="66" fill="hsl(210, 48%, 71%)" opacity="0.26"/>
<rect x="451" y="545" width="255" height="125" rx="18" fill="hsl(257, 60%, 50%)" opacity="0.34"/>
<rect x="530" y="598" width="294" height="154" rx="34" fill="hsl(304, 72%, 57%)" opacity="0.42"/>
<rect x="609" y="1" width="333" height="183" rx="50" fill="hsl(351, 48%, 64%)" opacity="0.50"/>
<rect x="688" y="54" width="372" height="212" rx="66" fill="hsl(38, 60%, 71%)" opacity="0.18"/>
<polyline points="0,193 90,145 180,138 270,174 360,236 450,288 540,304 630,275 720,216 810,159 900,135" fill="none" stroke="hsl(163, 72%, 64%)" stroke-width="10" opacity="0.5" stroke-linecap="round"/>
<polyline points="0,193 90,186 180,222 270,284 360,336 450,352 540,323 630,264 720,207 810,183 900,204" fill="none" stroke="hsl(210, 48%, 71%)" stroke-width="13" opacity="0.5" stroke-linecap="round"/>
<polyline points="0,234 90,270 180,332 270,384 360,400 450,371 540,312 630,255 720,231 810,252 900,308" fill="none" stroke="hsl(257, 60%, 50%)" stroke-width="16" opacity="0.5" stroke-linecap="round"/>
<polyline points="0,318 90,380 180,432 270,448 360,419 450,360 540,303 630,279 720,300 810,356 900,415" fill="none" stroke="hsl(304, 72%, 57%)" stroke-width="19" opacity="0.5" stroke-linecap="round"/>
<polyline points="0,428 90,480 180,496 270,467 360,408 450,351 540,327 630,348 720,404 810,463 900,496" fill="none" stroke="hsl(351, 48%, 64%)" stroke-width="22" opacity="0.5" stroke-linecap="round"/>
<polyline points="0,528 90,544 180,515 270,456 360,399 450,375 540,396 630,452 720,511 810,544 900,531" fill="none" stroke="hsl(38, 60%, 71%)" stroke-width="25" opacity="0.5" stroke-linecap="round"/>
<rect x="0" y="0" width="900" height="650" fill="none" stroke="rgba(255,255,255,.7)" stroke-width="18"/>
</svg>