<svg xmlns="http://www.w3.org/2000/svg" viewBox="0 0 900 650" role="img" aria-label="Copper Hillside Song abstract painting">
<rect width="900" height="650" fill="hsl(10, 45%, 48%)"/>
<rect x="290" y="610" width="230" height="90" rx="20" fill="hsl(10, 45%, 48%)" opacity="0.18"/>
<rect x="373" y="7" width="267" height="113" rx="36" fill="hsl(59, 57%, 56%)" opacity="0.27"/>
<rect x="456" y="54" width="304" height="136" rx="52" fill="hsl(108, 69%, 64%)" opacity="0.36"/>
<rect x="539" y="101" width="341" height="159" rx="68" fill="hsl(157, 45%, 72%)" opacity="0.45"/>
<rect x="622" y="148" width="378" height="182" rx="20" fill="hsl(206, 57%, 48%)" opacity="0.54"/>
<rect x="705" y="195" width="155" height="205" rx="36" fill="hsl(255, 69%, 56%)" opacity="0.18"/>
<rect x="788" y="242" width="192" height="228" rx="52" fill="hsl(304, 45%, 64%)" opacity="0.27"/>
<rect x="871" y="289" width="229" height="251" rx="68" fill="hsl(353, 57%, 72%)" opacity="0.36"/>
<rect x="54" y="336" width="266" height="274" rx="20" fill="hsl(10, 45%, 48%)" opacity="0.45"/>
<rect x="137" y="383" width="303" height="297" rx="36" fill="hsl(59, 57%, 56%)" opacity="0.54"/>
<rect x="220" y="430" width="340" height="100" rx="52" fill="hsl(108, 69%, 64%)" opacity="0.18"/>
<rect x="303" y="477" width="377" height="123" rx="68" fill="hsl(157, 45%, 72%)" opacity="0.27"/>
<rect x="386" y="524" width="154" height="146" rx="20" fill="hsl(206, 57%, 48%)" opacity="0.36"/>
<rect x="469" y="571" width="191" height="169" rx="36" fill="hsl(255, 69%, 56%)" opacity="0.45"/>
<polyline points="0,329 100,293 200,224 300,165 400,152 500,192 600,261 700,317 800,327 900,284" fill="none" stroke="hsl(157, 45%, 72%)" stroke-width="12" opacity="0.48" stroke-linecap="round"/>
<polyline points="0,335 100,266 200,207 300,194 400,234 500,303 600,359 700,369 800,326 900,256" fill="none" stroke="hsl(206, 57%, 48%)" stroke-width="16" opacity="0.48" stroke-linecap="round"/>
<polyline points="0,308 100,249 200,236 300,276 400,345 500,401 600,411 700,368 800,298 900,244" fill="none" stroke="hsl(255, 69%, 56%)" stroke-width="20" opacity="0.48" stroke-linecap="round"/>
<polyline points="0,291 100,278 200,318 300,387 400,443 500,453 600,410 700,340 800,286 900,281" fill="none" stroke="hsl(304, 45%, 64%)" stroke-width="24" opacity="0.48" stroke-linecap="round"/>
<polyline points="0,320 100,360 200,429 300,485 400,495 500,452 600,382 700,328 800,323 900,369" fill="none" stroke="hsl(353, 57%, 72%)" stroke-width="28" opacity="0.48" stroke-linecap="round"/>
<rect x="0" y="0" width="900" height="650" fill="none" stroke="rgba(255,255,255,.55)" stroke-width="16"/>
</svg>