<svg xmlns="http://www.w3.org/2000/svg" viewBox="0 0 900 650" role="img" aria-label="Indigo Market Evening abstract painting">
<rect width="900" height="650" fill="hsl(3, 48%, 50%)"/>
<rect x="341" y="473" width="269" height="179" rx="18" fill="hsl(3, 48%, 50%)" opacity="0.18"/>
<rect x="420" y="526" width="308" height="208" rx="34" fill="hsl(50, 60%, 57%)" opacity="0.26"/>
<rect x="499" y="579" width="347" height="237" rx="50" fill="hsl(97, 72%, 64%)" opacity="0.34"/>
<rect x="578" y="632" width="386" height="266" rx="66" fill="hsl(144, 48%, 71%)" opacity="0.42"/>
<rect x="657" y="35" width="145" height="295" rx="18" fill="hsl(191, 60%, 50%)" opacity="0.50"/>
<rect x="736" y="88" width="184" height="94" rx="34" fill="hsl(238, 72%, 57%)" opacity="0.18"/>
<rect x="815" y="141" width="223" height="123" rx="50" fill="hsl(285, 48%, 64%)" opacity="0.26"/>
<rect x="894" y="194" width="262" height="152" rx="66" fill="hsl(332, 60%, 71%)" opacity="0.34"/>
<rect x="73" y="247" width="301" height="181" rx="18" fill="hsl(3, 48%, 50%)" opacity="0.42"/>
<rect x="152" y="300" width="340" height="210" rx="34" fill="hsl(50, 60%, 57%)" opacity="0.50"/>
<rect x="231" y="353" width="379" height="239" rx="50" fill="hsl(97, 72%, 64%)" opacity="0.18"/>
<rect x="310" y="406" width="138" height="268" rx="66" fill="hsl(144, 48%, 71%)" opacity="0.26"/>
<rect x="389" y="459" width="177" height="297" rx="18" fill="hsl(191, 60%, 50%)" opacity="0.34"/>
<rect x="468" y="512" width="216" height="96" rx="34" fill="hsl(238, 72%, 57%)" opacity="0.42"/>
<rect x="547" y="565" width="255" height="125" rx="50" fill="hsl(285, 48%, 64%)" opacity="0.50"/>
<rect x="626" y="618" width="294" height="154" rx="66" fill="hsl(332, 60%, 71%)" opacity="0.18"/>
<polyline points="0,298 90,255 180,193 270,145 360,138 450,174 540,236 630,288 720,304 810,275 900,216" fill="none" stroke="hsl(97, 72%, 64%)" stroke-width="10" opacity="0.5" stroke-linecap="round"/>
<polyline points="0,303 90,241 180,193 270,186 360,222 450,284 540,336 630,352 720,323 810,264 900,207" fill="none" stroke="hsl(144, 48%, 71%)" stroke-width="13" opacity="0.5" stroke-linecap="round"/>
<polyline points="0,289 90,241 180,234 270,270 360,332 450,384 540,400 630,371 720,312 810,255 900,231" fill="none" stroke="hsl(191, 60%, 50%)" stroke-width="16" opacity="0.5" stroke-linecap="round"/>
<polyline points="0,289 90,282 180,318 270,380 360,432 450,448 540,419 630,360 720,303 810,279 900,300" fill="none" stroke="hsl(238, 72%, 57%)" stroke-width="19" opacity="0.5" stroke-linecap="round"/>
<polyline points="0,330 90,366 180,428 270,480 360,496 450,467 540,408 630,351 720,327 810,348 900,404" fill="none" stroke="hsl(285, 48%, 64%)" stroke-width="22" opacity="0.5" stroke-linecap="round"/>
<polyline points="0,414 90,476 180,528 270,544 360,515 450,456 540,399 630,375 720,396 810,452 900,511" fill="none" stroke="hsl(332, 60%, 71%)" stroke-width="25" opacity="0.5" stroke-linecap="round"/>
<rect x="0" y="0" width="900" height="650" fill="none" stroke="rgba(255,255,255,.7)" stroke-width="18"/>
</svg>