<svg xmlns="http://www.w3.org/2000/svg" viewBox="0 0 900 650" role="img" aria-label="Silver Ocean Calm abstract painting">
<rect width="900" height="650" fill="hsl(102, 48%, 50%)"/>
<rect x="434" y="602" width="386" height="266" rx="18" fill="hsl(102, 48%, 50%)" opacity="0.18"/>
<rect x="513" y="5" width="145" height="295" rx="34" fill="hsl(149, 60%, 57%)" opacity="0.26"/>
<rect x="592" y="58" width="184" height="94" rx="50" fill="hsl(196, 72%, 64%)" opacity="0.34"/>
<rect x="671" y="111" width="223" height="123" rx="66" fill="hsl(243, 48%, 71%)" opacity="0.42"/>
<rect x="750" y="164" width="262" height="152" rx="18" fill="hsl(290, 60%, 50%)" opacity="0.50"/>
<rect x="829" y="217" width="301" height="181" rx="34" fill="hsl(337, 72%, 57%)" opacity="0.18"/>
<rect x="8" y="270" width="340" height="210" rx="50" fill="hsl(24, 48%, 64%)" opacity="0.26"/>
<rect x="87" y="323" width="379" height="239" rx="66" fill="hsl(71, 60%, 71%)" opacity="0.34"/>
<rect x="166" y="376" width="138" height="268" rx="18" fill="hsl(102, 48%, 50%)" opacity="0.42"/>
<rect x="245" y="429" width="177" height="297" rx="34" fill="hsl(149, 60%, 57%)" opacity="0.50"/>
<rect x="324" y="482" width="216" height="96" rx="50" fill="hsl(196, 72%, 64%)" opacity="0.18"/>
<rect x="403" y="535" width="255" height="125" rx="66" fill="hsl(243, 48%, 71%)" opacity="0.26"/>
<rect x="482" y="588" width="294" height="154" rx="18" fill="hsl(290, 60%, 50%)" opacity="0.34"/>
<rect x="561" y="641" width="333" height="183" rx="34" fill="hsl(337, 72%, 57%)" opacity="0.42"/>
<rect x="640" y="44" width="372" height="212" rx="50" fill="hsl(24, 48%, 64%)" opacity="0.50"/>
<rect x="719" y="97" width="131" height="241" rx="66" fill="hsl(71, 60%, 71%)" opacity="0.18"/>
<polyline points="0,145 90,138 180,174 270,236 360,288 450,304 540,275 630,216 720,159 810,135 900,156" fill="none" stroke="hsl(196, 72%, 64%)" stroke-width="10" opacity="0.5" stroke-linecap="round"/>
<polyline points="0,186 90,222 180,284 270,336 360,352 450,323 540,264 630,207 720,183 810,204 900,260" fill="none" stroke="hsl(243, 48%, 71%)" stroke-width="13" opacity="0.5" stroke-linecap="round"/>
<polyline points="0,270 90,332 180,384 270,400 360,371 450,312 540,255 630,231 720,252 810,308 900,367" fill="none" stroke="hsl(290, 60%, 50%)" stroke-width="16" opacity="0.5" stroke-linecap="round"/>
<polyline points="0,380 90,432 180,448 270,419 360,360 450,303 540,279 630,300 720,356 810,415 900,448" fill="none" stroke="hsl(337, 72%, 57%)" stroke-width="19" opacity="0.5" stroke-linecap="round"/>
<polyline points="0,480 90,496 180,467 270,408 360,351 450,327 540,348 630,404 720,463 810,496 900,483" fill="none" stroke="hsl(24, 48%, 64%)" stroke-width="22" opacity="0.5" stroke-linecap="round"/>
<polyline points="0,544 90,515 180,456 270,399 360,375 450,396 540,452 630,511 720,544 810,531 900,480" fill="none" stroke="hsl(71, 60%, 71%)" stroke-width="25" opacity="0.5" stroke-linecap="round"/>
<rect x="0" y="0" width="900" height="650" fill="none" stroke="rgba(255,255,255,.7)" stroke-width="18"/>
</svg>