<svg xmlns="http://www.w3.org/2000/svg" viewBox="0 0 900 650" role="img" aria-label="Emerald Rain Street abstract painting">
<rect width="900" height="650" fill="hsl(198, 48%, 50%)"/>
<rect x="186" y="258" width="354" height="264" rx="18" fill="hsl(198, 48%, 50%)" opacity="0.18"/>
<rect x="265" y="311" width="393" height="293" rx="34" fill="hsl(245, 60%, 57%)" opacity="0.26"/>
<rect x="344" y="364" width="152" height="92" rx="50" fill="hsl(292, 72%, 64%)" opacity="0.34"/>
<rect x="423" y="417" width="191" height="121" rx="66" fill="hsl(339, 48%, 71%)" opacity="0.42"/>
<rect x="502" y="470" width="230" height="150" rx="18" fill="hsl(26, 60%, 50%)" opacity="0.50"/>
<rect x="581" y="523" width="269" height="179" rx="34" fill="hsl(73, 72%, 57%)" opacity="0.18"/>
<rect x="660" y="576" width="308" height="208" rx="50" fill="hsl(120, 48%, 64%)" opacity="0.26"/>
<rect x="739" y="629" width="347" height="237" rx="66" fill="hsl(167, 60%, 71%)" opacity="0.34"/>
<rect x="818" y="32" width="386" height="266" rx="18" fill="hsl(198, 48%, 50%)" opacity="0.42"/>
<rect x="897" y="85" width="145" height="295" rx="34" fill="hsl(245, 60%, 57%)" opacity="0.50"/>
<rect x="76" y="138" width="184" height="94" rx="50" fill="hsl(292, 72%, 64%)" opacity="0.18"/>
<rect x="155" y="191" width="223" height="123" rx="66" fill="hsl(339, 48%, 71%)" opacity="0.26"/>
<rect x="234" y="244" width="262" height="152" rx="18" fill="hsl(26, 60%, 50%)" opacity="0.34"/>
<rect x="313" y="297" width="301" height="181" rx="34" fill="hsl(73, 72%, 57%)" opacity="0.42"/>
<rect x="392" y="350" width="340" height="210" rx="50" fill="hsl(120, 48%, 64%)" opacity="0.50"/>
<rect x="471" y="403" width="379" height="239" rx="66" fill="hsl(167, 60%, 71%)" opacity="0.18"/>
<polyline points="0,137 90,147 180,196 270,258 360,300 450,298 540,255 630,193 720,145 810,138 900,174" fill="none" stroke="hsl(292, 72%, 64%)" stroke-width="10" opacity="0.5" stroke-linecap="round"/>
<polyline points="0,195 90,244 180,306 270,348 360,346 450,303 540,241 630,193 720,186 810,222 900,284" fill="none" stroke="hsl(339, 48%, 71%)" stroke-width="13" opacity="0.5" stroke-linecap="round"/>
<polyline points="0,292 90,354 180,396 270,394 360,351 450,289 540,241 630,234 720,270 810,332 900,384" fill="none" stroke="hsl(26, 60%, 50%)" stroke-width="16" opacity="0.5" stroke-linecap="round"/>
<polyline points="0,402 90,444 180,442 270,399 360,337 450,289 540,282 630,318 720,380 810,432 900,448" fill="none" stroke="hsl(73, 72%, 57%)" stroke-width="19" opacity="0.5" stroke-linecap="round"/>
<polyline points="0,492 90,490 180,447 270,385 360,337 450,330 540,366 630,428 720,480 810,496 900,467" fill="none" stroke="hsl(120, 48%, 64%)" stroke-width="22" opacity="0.5" stroke-linecap="round"/>
<polyline points="0,538 90,495 180,433 270,385 360,378 450,414 540,476 630,528 720,544 810,515 900,456" fill="none" stroke="hsl(167, 60%, 71%)" stroke-width="25" opacity="0.5" stroke-linecap="round"/>
<rect x="0" y="0" width="900" height="650" fill="none" stroke="rgba(255,255,255,.7)" stroke-width="18"/>
</svg>