<svg xmlns="http://www.w3.org/2000/svg" viewBox="0 0 900 650" role="img" aria-label="Moonlit Cedar Lake abstract painting">
<rect width="900" height="650" fill="hsl(297, 48%, 50%)"/>
<rect x="279" y="387" width="191" height="121" rx="18" fill="hsl(297, 48%, 50%)" opacity="0.18"/>
<rect x="358" y="440" width="230" height="150" rx="34" fill="hsl(344, 60%, 57%)" opacity="0.26"/>
<rect x="437" y="493" width="269" height="179" rx="50" fill="hsl(31, 72%, 64%)" opacity="0.34"/>
<rect x="516" y="546" width="308" height="208" rx="66" fill="hsl(78, 48%, 71%)" opacity="0.42"/>
<rect x="595" y="599" width="347" height="237" rx="18" fill="hsl(125, 60%, 50%)" opacity="0.50"/>
<rect x="674" y="2" width="386" height="266" rx="34" fill="hsl(172, 72%, 57%)" opacity="0.18"/>
<rect x="753" y="55" width="145" height="295" rx="50" fill="hsl(219, 48%, 64%)" opacity="0.26"/>
<rect x="832" y="108" width="184" height="94" rx="66" fill="hsl(266, 60%, 71%)" opacity="0.34"/>
<rect x="11" y="161" width="223" height="123" rx="18" fill="hsl(297, 48%, 50%)" opacity="0.42"/>
<rect x="90" y="214" width="262" height="152" rx="34" fill="hsl(344, 60%, 57%)" opacity="0.50"/>
<rect x="169" y="267" width="301" height="181" rx="50" fill="hsl(31, 72%, 64%)" opacity="0.18"/>
<rect x="248" y="320" width="340" height="210" rx="66" fill="hsl(78, 48%, 71%)" opacity="0.26"/>
<rect x="327" y="373" width="379" height="239" rx="18" fill="hsl(125, 60%, 50%)" opacity="0.34"/>
<rect x="406" y="426" width="138" height="268" rx="34" fill="hsl(172, 72%, 57%)" opacity="0.42"/>
<rect x="485" y="479" width="177" height="297" rx="50" fill="hsl(219, 48%, 64%)" opacity="0.50"/>
<rect x="564" y="532" width="216" height="96" rx="66" fill="hsl(266, 60%, 71%)" opacity="0.18"/>
<polyline points="0,258 90,300 180,298 270,255 360,193 450,145 540,138 630,174 720,236 810,288 900,304" fill="none" stroke="hsl(31, 72%, 64%)" stroke-width="10" opacity="0.5" stroke-linecap="round"/>
<polyline points="0,348 90,346 180,303 270,241 360,193 450,186 540,222 630,284 720,336 810,352 900,323" fill="none" stroke="hsl(78, 48%, 71%)" stroke-width="13" opacity="0.5" stroke-linecap="round"/>
<polyline points="0,394 90,351 180,289 270,241 360,234 450,270 540,332 630,384 720,400 810,371 900,312" fill="none" stroke="hsl(125, 60%, 50%)" stroke-width="16" opacity="0.5" stroke-linecap="round"/>
<polyline points="0,399 90,337 180,289 270,282 360,318 450,380 540,432 630,448 720,419 810,360 900,303" fill="none" stroke="hsl(172, 72%, 57%)" stroke-width="19" opacity="0.5" stroke-linecap="round"/>
<polyline points="0,385 90,337 180,330 270,366 360,428 450,480 540,496 630,467 720,408 810,351 900,327" fill="none" stroke="hsl(219, 48%, 64%)" stroke-width="22" opacity="0.5" stroke-linecap="round"/>
<polyline points="0,385 90,378 180,414 270,476 360,528 450,544 540,515 630,456 720,399 810,375 900,396" fill="none" stroke="hsl(266, 60%, 71%)" stroke-width="25" opacity="0.5" stroke-linecap="round"/>
<rect x="0" y="0" width="900" height="650" fill="none" stroke="rgba(255,255,255,.7)" stroke-width="18"/>
</svg>