<svg xmlns="http://www.w3.org/2000/svg" viewBox="0 0 900 650" role="img" aria-label="Copper Hillside Song abstract painting">
<rect width="900" height="650" fill="hsl(330, 48%, 50%)"/>
<rect x="310" y="430" width="230" height="150" rx="18" fill="hsl(330, 48%, 50%)" opacity="0.18"/>
<rect x="389" y="483" width="269" height="179" rx="34" fill="hsl(17, 60%, 57%)" opacity="0.26"/>
<rect x="468" y="536" width="308" height="208" rx="50" fill="hsl(64, 72%, 64%)" opacity="0.34"/>
<rect x="547" y="589" width="347" height="237" rx="66" fill="hsl(111, 48%, 71%)" opacity="0.42"/>
<rect x="626" y="642" width="386" height="266" rx="18" fill="hsl(158, 60%, 50%)" opacity="0.50"/>
<rect x="705" y="45" width="145" height="295" rx="34" fill="hsl(205, 72%, 57%)" opacity="0.18"/>
<rect x="784" y="98" width="184" height="94" rx="50" fill="hsl(252, 48%, 64%)" opacity="0.26"/>
<rect x="863" y="151" width="223" height="123" rx="66" fill="hsl(299, 60%, 71%)" opacity="0.34"/>
<rect x="42" y="204" width="262" height="152" rx="18" fill="hsl(330, 48%, 50%)" opacity="0.42"/>
<rect x="121" y="257" width="301" height="181" rx="34" fill="hsl(17, 60%, 57%)" opacity="0.50"/>
<rect x="200" y="310" width="340" height="210" rx="50" fill="hsl(64, 72%, 64%)" opacity="0.18"/>
<rect x="279" y="363" width="379" height="239" rx="66" fill="hsl(111, 48%, 71%)" opacity="0.26"/>
<rect x="358" y="416" width="138" height="268" rx="18" fill="hsl(158, 60%, 50%)" opacity="0.34"/>
<rect x="437" y="469" width="177" height="297" rx="34" fill="hsl(205, 72%, 57%)" opacity="0.42"/>
<rect x="516" y="522" width="216" height="96" rx="50" fill="hsl(252, 48%, 64%)" opacity="0.50"/>
<rect x="595" y="575" width="255" height="125" rx="66" fill="hsl(299, 60%, 71%)" opacity="0.18"/>
<polyline points="0,300 90,298 180,255 270,193 360,145 450,138 540,174 630,236 720,288 810,304 900,275" fill="none" stroke="hsl(64, 72%, 64%)" stroke-width="10" opacity="0.5" stroke-linecap="round"/>
<polyline points="0,346 90,303 180,241 270,193 360,186 450,222 540,284 630,336 720,352 810,323 900,264" fill="none" stroke="hsl(111, 48%, 71%)" stroke-width="13" opacity="0.5" stroke-linecap="round"/>
<polyline points="0,351 90,289 180,241 270,234 360,270 450,332 540,384 630,400 720,371 810,312 900,255" fill="none" stroke="hsl(158, 60%, 50%)" stroke-width="16" opacity="0.5" stroke-linecap="round"/>
<polyline points="0,337 90,289 180,282 270,318 360,380 450,432 540,448 630,419 720,360 810,303 900,279" fill="none" stroke="hsl(205, 72%, 57%)" stroke-width="19" opacity="0.5" stroke-linecap="round"/>
<polyline points="0,337 90,330 180,366 270,428 360,480 450,496 540,467 630,408 720,351 810,327 900,348" fill="none" stroke="hsl(252, 48%, 64%)" stroke-width="22" opacity="0.5" stroke-linecap="round"/>
<polyline points="0,378 90,414 180,476 270,528 360,544 450,515 540,456 630,399 720,375 810,396 900,452" fill="none" stroke="hsl(299, 60%, 71%)" stroke-width="25" opacity="0.5" stroke-linecap="round"/>
<rect x="0" y="0" width="900" height="650" fill="none" stroke="rgba(255,255,255,.7)" stroke-width="18"/>
</svg>