<svg xmlns="http://www.w3.org/2000/svg" viewBox="0 0 900 650" role="img" aria-label="Winter Pine Reflection abstract painting">
<rect width="900" height="650" fill="hsl(300, 48%, 50%)"/>
<rect x="620" y="210" width="340" height="210" rx="18" fill="hsl(300, 48%, 50%)" opacity="0.18"/>
<rect x="699" y="263" width="379" height="239" rx="34" fill="hsl(347, 60%, 57%)" opacity="0.26"/>
<rect x="778" y="316" width="138" height="268" rx="50" fill="hsl(34, 72%, 64%)" opacity="0.34"/>
<rect x="857" y="369" width="177" height="297" rx="66" fill="hsl(81, 48%, 71%)" opacity="0.42"/>
<rect x="36" y="422" width="216" height="96" rx="18" fill="hsl(128, 60%, 50%)" opacity="0.50"/>
<rect x="115" y="475" width="255" height="125" rx="34" fill="hsl(175, 72%, 57%)" opacity="0.18"/>
<rect x="194" y="528" width="294" height="154" rx="50" fill="hsl(222, 48%, 64%)" opacity="0.26"/>
<rect x="273" y="581" width="333" height="183" rx="66" fill="hsl(269, 60%, 71%)" opacity="0.34"/>
<rect x="352" y="634" width="372" height="212" rx="18" fill="hsl(300, 48%, 50%)" opacity="0.42"/>
<rect x="431" y="37" width="131" height="241" rx="34" fill="hsl(347, 60%, 57%)" opacity="0.50"/>
<rect x="510" y="90" width="170" height="270" rx="50" fill="hsl(34, 72%, 64%)" opacity="0.18"/>
<rect x="589" y="143" width="209" height="299" rx="66" fill="hsl(81, 48%, 71%)" opacity="0.26"/>
<rect x="668" y="196" width="248" height="98" rx="18" fill="hsl(128, 60%, 50%)" opacity="0.34"/>
<rect x="747" y="249" width="287" height="127" rx="34" fill="hsl(175, 72%, 57%)" opacity="0.42"/>
<rect x="826" y="302" width="326" height="156" rx="50" fill="hsl(222, 48%, 64%)" opacity="0.50"/>
<rect x="5" y="355" width="365" height="185" rx="66" fill="hsl(269, 60%, 71%)" opacity="0.18"/>
<polyline points="0,275 90,216 180,159 270,135 360,156 450,212 540,271 630,304 720,291 810,240 900,179" fill="none" stroke="hsl(34, 72%, 64%)" stroke-width="10" opacity="0.5" stroke-linecap="round"/>
<polyline points="0,264 90,207 180,183 270,204 360,260 450,319 540,352 630,339 720,288 810,227 900,187" fill="none" stroke="hsl(81, 48%, 71%)" stroke-width="13" opacity="0.5" stroke-linecap="round"/>
<polyline points="0,255 90,231 180,252 270,308 360,367 450,400 540,387 630,336 720,275 810,235 900,239" fill="none" stroke="hsl(128, 60%, 50%)" stroke-width="16" opacity="0.5" stroke-linecap="round"/>
<polyline points="0,279 90,300 180,356 270,415 360,448 450,435 540,384 630,323 720,283 810,287 900,332" fill="none" stroke="hsl(175, 72%, 57%)" stroke-width="19" opacity="0.5" stroke-linecap="round"/>
<polyline points="0,348 90,404 180,463 270,496 360,483 450,432 540,371 630,331 720,335 810,380 900,443" fill="none" stroke="hsl(222, 48%, 64%)" stroke-width="22" opacity="0.5" stroke-linecap="round"/>
<polyline points="0,452 90,511 180,544 270,531 360,480 450,419 540,379 630,383 720,428 810,491 900,536" fill="none" stroke="hsl(269, 60%, 71%)" stroke-width="25" opacity="0.5" stroke-linecap="round"/>
<rect x="0" y="0" width="900" height="650" fill="none" stroke="rgba(255,255,255,.7)" stroke-width="18"/>
</svg>