<svg xmlns="http://www.w3.org/2000/svg" viewBox="0 0 900 650" role="img" aria-label="Rose Valley Mist abstract painting">
<rect width="900" height="650" fill="hsl(264, 48%, 50%)"/>
<rect x="248" y="344" width="152" height="92" rx="18" fill="hsl(264, 48%, 50%)" opacity="0.18"/>
<rect x="327" y="397" width="191" height="121" rx="34" fill="hsl(311, 60%, 57%)" opacity="0.26"/>
<rect x="406" y="450" width="230" height="150" rx="50" fill="hsl(358, 72%, 64%)" opacity="0.34"/>
<rect x="485" y="503" width="269" height="179" rx="66" fill="hsl(45, 48%, 71%)" opacity="0.42"/>
<rect x="564" y="556" width="308" height="208" rx="18" fill="hsl(92, 60%, 50%)" opacity="0.50"/>
<rect x="643" y="609" width="347" height="237" rx="34" fill="hsl(139, 72%, 57%)" opacity="0.18"/>
<rect x="722" y="12" width="386" height="266" rx="50" fill="hsl(186, 48%, 64%)" opacity="0.26"/>
<rect x="801" y="65" width="145" height="295" rx="66" fill="hsl(233, 60%, 71%)" opacity="0.34"/>
<rect x="880" y="118" width="184" height="94" rx="18" fill="hsl(264, 48%, 50%)" opacity="0.42"/>
<rect x="59" y="171" width="223" height="123" rx="34" fill="hsl(311, 60%, 57%)" opacity="0.50"/>
<rect x="138" y="224" width="262" height="152" rx="50" fill="hsl(358, 72%, 64%)" opacity="0.18"/>
<rect x="217" y="277" width="301" height="181" rx="66" fill="hsl(45, 48%, 71%)" opacity="0.26"/>
<rect x="296" y="330" width="340" height="210" rx="18" fill="hsl(92, 60%, 50%)" opacity="0.34"/>
<rect x="375" y="383" width="379" height="239" rx="34" fill="hsl(139, 72%, 57%)" opacity="0.42"/>
<rect x="454" y="436" width="138" height="268" rx="50" fill="hsl(186, 48%, 64%)" opacity="0.50"/>
<rect x="533" y="489" width="177" height="297" rx="66" fill="hsl(233, 60%, 71%)" opacity="0.18"/>
<polyline points="0,196 90,258 180,300 270,298 360,255 450,193 540,145 630,138 720,174 810,236 900,288" fill="none" stroke="hsl(358, 72%, 64%)" stroke-width="10" opacity="0.5" stroke-linecap="round"/>
<polyline points="0,306 90,348 180,346 270,303 360,241 450,193 540,186 630,222 720,284 810,336 900,352" fill="none" stroke="hsl(45, 48%, 71%)" stroke-width="13" opacity="0.5" stroke-linecap="round"/>
<polyline points="0,396 90,394 180,351 270,289 360,241 450,234 540,270 630,332 720,384 810,400 900,371" fill="none" stroke="hsl(92, 60%, 50%)" stroke-width="16" opacity="0.5" stroke-linecap="round"/>
<polyline points="0,442 90,399 180,337 270,289 360,282 450,318 540,380 630,432 720,448 810,419 900,360" fill="none" stroke="hsl(139, 72%, 57%)" stroke-width="19" opacity="0.5" stroke-linecap="round"/>
<polyline points="0,447 90,385 180,337 270,330 360,366 450,428 540,480 630,496 720,467 810,408 900,351" fill="none" stroke="hsl(186, 48%, 64%)" stroke-width="22" opacity="0.5" stroke-linecap="round"/>
<polyline points="0,433 90,385 180,378 270,414 360,476 450,528 540,544 630,515 720,456 810,399 900,375" fill="none" stroke="hsl(233, 60%, 71%)" stroke-width="25" opacity="0.5" stroke-linecap="round"/>
<rect x="0" y="0" width="900" height="650" fill="none" stroke="rgba(255,255,255,.7)" stroke-width="18"/>
</svg>