<svg xmlns="http://www.w3.org/2000/svg" viewBox="0 0 900 650" role="img" aria-label="Rose Valley Mist abstract painting">
<rect width="900" height="650" fill="hsl(296, 45%, 48%)"/>
<rect x="232" y="488" width="156" height="264" rx="20" fill="hsl(296, 45%, 48%)" opacity="0.18"/>
<rect x="315" y="535" width="193" height="287" rx="36" fill="hsl(345, 57%, 56%)" opacity="0.27"/>
<rect x="398" y="582" width="230" height="90" rx="52" fill="hsl(34, 69%, 64%)" opacity="0.36"/>
<rect x="481" y="629" width="267" height="113" rx="68" fill="hsl(83, 45%, 72%)" opacity="0.45"/>
<rect x="564" y="26" width="304" height="136" rx="20" fill="hsl(132, 57%, 48%)" opacity="0.54"/>
<rect x="647" y="73" width="341" height="159" rx="36" fill="hsl(181, 69%, 56%)" opacity="0.18"/>
<rect x="730" y="120" width="378" height="182" rx="52" fill="hsl(230, 45%, 64%)" opacity="0.27"/>
<rect x="813" y="167" width="155" height="205" rx="68" fill="hsl(279, 57%, 72%)" opacity="0.36"/>
<rect x="896" y="214" width="192" height="228" rx="20" fill="hsl(296, 45%, 48%)" opacity="0.45"/>
<rect x="79" y="261" width="229" height="251" rx="36" fill="hsl(345, 57%, 56%)" opacity="0.54"/>
<rect x="162" y="308" width="266" height="274" rx="52" fill="hsl(34, 69%, 64%)" opacity="0.18"/>
<rect x="245" y="355" width="303" height="297" rx="68" fill="hsl(83, 45%, 72%)" opacity="0.27"/>
<rect x="328" y="402" width="340" height="100" rx="20" fill="hsl(132, 57%, 48%)" opacity="0.36"/>
<rect x="411" y="449" width="377" height="123" rx="36" fill="hsl(181, 69%, 56%)" opacity="0.45"/>
<polyline points="0,250 100,311 200,329 300,293 400,224 500,165 600,152 700,192 800,261 900,317" fill="none" stroke="hsl(83, 45%, 72%)" stroke-width="12" opacity="0.48" stroke-linecap="round"/>
<polyline points="0,353 100,371 200,335 300,266 400,207 500,194 600,234 700,303 800,359 900,369" fill="none" stroke="hsl(132, 57%, 48%)" stroke-width="16" opacity="0.48" stroke-linecap="round"/>
<polyline points="0,413 100,377 200,308 300,249 400,236 500,276 600,345 700,401 800,411 900,368" fill="none" stroke="hsl(181, 69%, 56%)" stroke-width="20" opacity="0.48" stroke-linecap="round"/>
<polyline points="0,419 100,350 200,291 300,278 400,318 500,387 600,443 700,453 800,410 900,340" fill="none" stroke="hsl(230, 45%, 64%)" stroke-width="24" opacity="0.48" stroke-linecap="round"/>
<polyline points="0,392 100,333 200,320 300,360 400,429 500,485 600,495 700,452 800,382 900,328" fill="none" stroke="hsl(279, 57%, 72%)" stroke-width="28" opacity="0.48" stroke-linecap="round"/>
<rect x="0" y="0" width="900" height="650" fill="none" stroke="rgba(255,255,255,.55)" stroke-width="16"/>
</svg>