<svg xmlns="http://www.w3.org/2000/svg" viewBox="0 0 900 650" role="img" aria-label="Cloud Break Horizon abstract painting">
<rect width="900" height="650" fill="hsl(201, 48%, 50%)"/>
<rect x="527" y="81" width="223" height="123" rx="18" fill="hsl(201, 48%, 50%)" opacity="0.18"/>
<rect x="606" y="134" width="262" height="152" rx="34" fill="hsl(248, 60%, 57%)" opacity="0.26"/>
<rect x="685" y="187" width="301" height="181" rx="50" fill="hsl(295, 72%, 64%)" opacity="0.34"/>
<rect x="764" y="240" width="340" height="210" rx="66" fill="hsl(342, 48%, 71%)" opacity="0.42"/>
<rect x="843" y="293" width="379" height="239" rx="18" fill="hsl(29, 60%, 50%)" opacity="0.50"/>
<rect x="22" y="346" width="138" height="268" rx="34" fill="hsl(76, 72%, 57%)" opacity="0.18"/>
<rect x="101" y="399" width="177" height="297" rx="50" fill="hsl(123, 48%, 64%)" opacity="0.26"/>
<rect x="180" y="452" width="216" height="96" rx="66" fill="hsl(170, 60%, 71%)" opacity="0.34"/>
<rect x="259" y="505" width="255" height="125" rx="18" fill="hsl(201, 48%, 50%)" opacity="0.42"/>
<rect x="338" y="558" width="294" height="154" rx="34" fill="hsl(248, 60%, 57%)" opacity="0.50"/>
<rect x="417" y="611" width="333" height="183" rx="50" fill="hsl(295, 72%, 64%)" opacity="0.18"/>
<rect x="496" y="14" width="372" height="212" rx="66" fill="hsl(342, 48%, 71%)" opacity="0.26"/>
<rect x="575" y="67" width="131" height="241" rx="18" fill="hsl(29, 60%, 50%)" opacity="0.34"/>
<rect x="654" y="120" width="170" height="270" rx="34" fill="hsl(76, 72%, 57%)" opacity="0.42"/>
<rect x="733" y="173" width="209" height="299" rx="50" fill="hsl(123, 48%, 64%)" opacity="0.50"/>
<rect x="812" y="226" width="248" height="98" rx="66" fill="hsl(170, 60%, 71%)" opacity="0.18"/>
<polyline points="0,236 90,288 180,304 270,275 360,216 450,159 540,135 630,156 720,212 810,271 900,304" fill="none" stroke="hsl(295, 72%, 64%)" stroke-width="10" opacity="0.5" stroke-linecap="round"/>
<polyline points="0,336 90,352 180,323 270,264 360,207 450,183 540,204 630,260 720,319 810,352 900,339" fill="none" stroke="hsl(342, 48%, 71%)" stroke-width="13" opacity="0.5" stroke-linecap="round"/>
<polyline points="0,400 90,371 180,312 270,255 360,231 450,252 540,308 630,367 720,400 810,387 900,336" fill="none" stroke="hsl(29, 60%, 50%)" stroke-width="16" opacity="0.5" stroke-linecap="round"/>
<polyline points="0,419 90,360 180,303 270,279 360,300 450,356 540,415 630,448 720,435 810,384 900,323" fill="none" stroke="hsl(76, 72%, 57%)" stroke-width="19" opacity="0.5" stroke-linecap="round"/>
<polyline points="0,408 90,351 180,327 270,348 360,404 450,463 540,496 630,483 720,432 810,371 900,331" fill="none" stroke="hsl(123, 48%, 64%)" stroke-width="22" opacity="0.5" stroke-linecap="round"/>
<polyline points="0,399 90,375 180,396 270,452 360,511 450,544 540,531 630,480 720,419 810,379 900,383" fill="none" stroke="hsl(170, 60%, 71%)" stroke-width="25" opacity="0.5" stroke-linecap="round"/>
<rect x="0" y="0" width="900" height="650" fill="none" stroke="rgba(255,255,255,.7)" stroke-width="18"/>
</svg>