<svg xmlns="http://www.w3.org/2000/svg" viewBox="0 0 900 650" role="img" aria-label="Sunset Cottage Glow abstract painting">
<rect width="900" height="650" fill="hsl(343, 45%, 48%)"/>
<rect x="551" y="509" width="303" height="297" rx="20" fill="hsl(343, 45%, 48%)" opacity="0.18"/>
<rect x="634" y="556" width="340" height="100" rx="36" fill="hsl(32, 57%, 56%)" opacity="0.27"/>
<rect x="717" y="603" width="377" height="123" rx="52" fill="hsl(81, 69%, 64%)" opacity="0.36"/>
<rect x="800" y="0" width="154" height="146" rx="68" fill="hsl(130, 45%, 72%)" opacity="0.45"/>
<rect x="883" y="47" width="191" height="169" rx="20" fill="hsl(179, 57%, 48%)" opacity="0.54"/>
<rect x="66" y="94" width="228" height="192" rx="36" fill="hsl(228, 69%, 56%)" opacity="0.18"/>
<rect x="149" y="141" width="265" height="215" rx="52" fill="hsl(277, 45%, 64%)" opacity="0.27"/>
<rect x="232" y="188" width="302" height="238" rx="68" fill="hsl(326, 57%, 72%)" opacity="0.36"/>
<rect x="315" y="235" width="339" height="261" rx="20" fill="hsl(343, 45%, 48%)" opacity="0.45"/>
<rect x="398" y="282" width="376" height="284" rx="36" fill="hsl(32, 57%, 56%)" opacity="0.54"/>
<rect x="481" y="329" width="153" height="87" rx="52" fill="hsl(81, 69%, 64%)" opacity="0.18"/>
<rect x="564" y="376" width="190" height="110" rx="68" fill="hsl(130, 45%, 72%)" opacity="0.27"/>
<rect x="647" y="423" width="227" height="133" rx="20" fill="hsl(179, 57%, 48%)" opacity="0.36"/>
<rect x="730" y="470" width="264" height="156" rx="36" fill="hsl(228, 69%, 56%)" opacity="0.45"/>
<polyline points="0,284 100,214 200,160 300,155 400,201 500,271 600,322 700,324 800,274 900,204" fill="none" stroke="hsl(130, 45%, 72%)" stroke-width="12" opacity="0.48" stroke-linecap="round"/>
<polyline points="0,256 100,202 200,197 300,243 400,313 500,364 600,366 700,316 800,246 900,198" fill="none" stroke="hsl(179, 57%, 48%)" stroke-width="16" opacity="0.48" stroke-linecap="round"/>
<polyline points="0,244 100,239 200,285 300,355 400,406 500,408 600,358 700,288 800,240 900,242" fill="none" stroke="hsl(228, 69%, 56%)" stroke-width="20" opacity="0.48" stroke-linecap="round"/>
<polyline points="0,281 100,327 200,397 300,448 400,450 500,400 600,330 700,282 800,284 900,337" fill="none" stroke="hsl(277, 45%, 64%)" stroke-width="24" opacity="0.48" stroke-linecap="round"/>
<polyline points="0,369 100,439 200,490 300,492 400,442 500,372 600,324 700,326 800,379 900,449" fill="none" stroke="hsl(326, 57%, 72%)" stroke-width="28" opacity="0.48" stroke-linecap="round"/>
<rect x="0" y="0" width="900" height="650" fill="none" stroke="rgba(255,255,255,.55)" stroke-width="16"/>
</svg>