<svg xmlns="http://www.w3.org/2000/svg" viewBox="0 0 900 650" role="img" aria-label="Autumn River Light abstract painting">
<rect width="900" height="650" fill="hsl(33, 48%, 50%)"/>
<rect x="31" y="43" width="159" height="119" rx="18" fill="hsl(33, 48%, 50%)" opacity="0.18"/>
<rect x="110" y="96" width="198" height="148" rx="34" fill="hsl(80, 60%, 57%)" opacity="0.26"/>
<rect x="189" y="149" width="237" height="177" rx="50" fill="hsl(127, 72%, 64%)" opacity="0.34"/>
<rect x="268" y="202" width="276" height="206" rx="66" fill="hsl(174, 48%, 71%)" opacity="0.42"/>
<rect x="347" y="255" width="315" height="235" rx="18" fill="hsl(221, 60%, 50%)" opacity="0.50"/>
<rect x="426" y="308" width="354" height="264" rx="34" fill="hsl(268, 72%, 57%)" opacity="0.18"/>
<rect x="505" y="361" width="393" height="293" rx="50" fill="hsl(315, 48%, 64%)" opacity="0.26"/>
<rect x="584" y="414" width="152" height="92" rx="66" fill="hsl(2, 60%, 71%)" opacity="0.34"/>
<rect x="663" y="467" width="191" height="121" rx="18" fill="hsl(33, 48%, 50%)" opacity="0.42"/>
<rect x="742" y="520" width="230" height="150" rx="34" fill="hsl(80, 60%, 57%)" opacity="0.50"/>
<rect x="821" y="573" width="269" height="179" rx="50" fill="hsl(127, 72%, 64%)" opacity="0.18"/>
<rect x="0" y="626" width="308" height="208" rx="66" fill="hsl(174, 48%, 71%)" opacity="0.26"/>
<rect x="79" y="29" width="347" height="237" rx="18" fill="hsl(221, 60%, 50%)" opacity="0.34"/>
<rect x="158" y="82" width="386" height="266" rx="34" fill="hsl(268, 72%, 57%)" opacity="0.42"/>
<rect x="237" y="135" width="145" height="295" rx="50" fill="hsl(315, 48%, 64%)" opacity="0.50"/>
<rect x="316" y="188" width="184" height="94" rx="66" fill="hsl(2, 60%, 71%)" opacity="0.18"/>
<polyline points="0,278 90,305 180,286 270,232 360,171 450,137 540,147 630,196 720,258 810,300 900,298" fill="none" stroke="hsl(127, 72%, 64%)" stroke-width="10" opacity="0.5" stroke-linecap="round"/>
<polyline points="0,353 90,334 180,280 270,219 360,185 450,195 540,244 630,306 720,348 810,346 900,303" fill="none" stroke="hsl(174, 48%, 71%)" stroke-width="13" opacity="0.5" stroke-linecap="round"/>
<polyline points="0,382 90,328 180,267 270,233 360,243 450,292 540,354 630,396 720,394 810,351 900,289" fill="none" stroke="hsl(221, 60%, 50%)" stroke-width="16" opacity="0.5" stroke-linecap="round"/>
<polyline points="0,376 90,315 180,281 270,291 360,340 450,402 540,444 630,442 720,399 810,337 900,289" fill="none" stroke="hsl(268, 72%, 57%)" stroke-width="19" opacity="0.5" stroke-linecap="round"/>
<polyline points="0,363 90,329 180,339 270,388 360,450 450,492 540,490 630,447 720,385 810,337 900,330" fill="none" stroke="hsl(315, 48%, 64%)" stroke-width="22" opacity="0.5" stroke-linecap="round"/>
<polyline points="0,377 90,387 180,436 270,498 360,540 450,538 540,495 630,433 720,385 810,378 900,414" fill="none" stroke="hsl(2, 60%, 71%)" stroke-width="25" opacity="0.5" stroke-linecap="round"/>
<rect x="0" y="0" width="900" height="650" fill="none" stroke="rgba(255,255,255,.7)" stroke-width="18"/>
</svg>