<svg xmlns="http://www.w3.org/2000/svg" viewBox="0 0 900 650" role="img" aria-label="Spring Orchard Air abstract painting">
<rect width="900" height="650" fill="hsl(36, 48%, 50%)"/>
<rect x="372" y="516" width="308" height="208" rx="18" fill="hsl(36, 48%, 50%)" opacity="0.18"/>
<rect x="451" y="569" width="347" height="237" rx="34" fill="hsl(83, 60%, 57%)" opacity="0.26"/>
<rect x="530" y="622" width="386" height="266" rx="50" fill="hsl(130, 72%, 64%)" opacity="0.34"/>
<rect x="609" y="25" width="145" height="295" rx="66" fill="hsl(177, 48%, 71%)" opacity="0.42"/>
<rect x="688" y="78" width="184" height="94" rx="18" fill="hsl(224, 60%, 50%)" opacity="0.50"/>
<rect x="767" y="131" width="223" height="123" rx="34" fill="hsl(271, 72%, 57%)" opacity="0.18"/>
<rect x="846" y="184" width="262" height="152" rx="50" fill="hsl(318, 48%, 64%)" opacity="0.26"/>
<rect x="25" y="237" width="301" height="181" rx="66" fill="hsl(5, 60%, 71%)" opacity="0.34"/>
<rect x="104" y="290" width="340" height="210" rx="18" fill="hsl(36, 48%, 50%)" opacity="0.42"/>
<rect x="183" y="343" width="379" height="239" rx="34" fill="hsl(83, 60%, 57%)" opacity="0.50"/>
<rect x="262" y="396" width="138" height="268" rx="50" fill="hsl(130, 72%, 64%)" opacity="0.18"/>
<rect x="341" y="449" width="177" height="297" rx="66" fill="hsl(177, 48%, 71%)" opacity="0.26"/>
<rect x="420" y="502" width="216" height="96" rx="18" fill="hsl(224, 60%, 50%)" opacity="0.34"/>
<rect x="499" y="555" width="255" height="125" rx="34" fill="hsl(271, 72%, 57%)" opacity="0.42"/>
<rect x="578" y="608" width="294" height="154" rx="50" fill="hsl(318, 48%, 64%)" opacity="0.50"/>
<rect x="657" y="11" width="333" height="183" rx="66" fill="hsl(5, 60%, 71%)" opacity="0.18"/>
<polyline points="0,255 90,193 180,145 270,138 360,174 450,236 540,288 630,304 720,275 810,216 900,159" fill="none" stroke="hsl(130, 72%, 64%)" stroke-width="10" opacity="0.5" stroke-linecap="round"/>
<polyline points="0,241 90,193 180,186 270,222 360,284 450,336 540,352 630,323 720,264 810,207 900,183" fill="none" stroke="hsl(177, 48%, 71%)" stroke-width="13" opacity="0.5" stroke-linecap="round"/>
<polyline points="0,241 90,234 180,270 270,332 360,384 450,400 540,371 630,312 720,255 810,231 900,252" fill="none" stroke="hsl(224, 60%, 50%)" stroke-width="16" opacity="0.5" stroke-linecap="round"/>
<polyline points="0,282 90,318 180,380 270,432 360,448 450,419 540,360 630,303 720,279 810,300 900,356" fill="none" stroke="hsl(271, 72%, 57%)" stroke-width="19" opacity="0.5" stroke-linecap="round"/>
<polyline points="0,366 90,428 180,480 270,496 360,467 450,408 540,351 630,327 720,348 810,404 900,463" fill="none" stroke="hsl(318, 48%, 64%)" stroke-width="22" opacity="0.5" stroke-linecap="round"/>
<polyline points="0,476 90,528 180,544 270,515 360,456 450,399 540,375 630,396 720,452 810,511 900,544" fill="none" stroke="hsl(5, 60%, 71%)" stroke-width="25" opacity="0.5" stroke-linecap="round"/>
<rect x="0" y="0" width="900" height="650" fill="none" stroke="rgba(255,255,255,.7)" stroke-width="18"/>
</svg>