<svg xmlns="http://www.w3.org/2000/svg" viewBox="0 0 900 650" role="img" aria-label="Sunset Cottage Glow abstract painting">
<rect width="900" height="650" fill="hsl(267, 48%, 50%)"/>
<rect x="589" y="167" width="301" height="181" rx="18" fill="hsl(267, 48%, 50%)" opacity="0.18"/>
<rect x="668" y="220" width="340" height="210" rx="34" fill="hsl(314, 60%, 57%)" opacity="0.26"/>
<rect x="747" y="273" width="379" height="239" rx="50" fill="hsl(1, 72%, 64%)" opacity="0.34"/>
<rect x="826" y="326" width="138" height="268" rx="66" fill="hsl(48, 48%, 71%)" opacity="0.42"/>
<rect x="5" y="379" width="177" height="297" rx="18" fill="hsl(95, 60%, 50%)" opacity="0.50"/>
<rect x="84" y="432" width="216" height="96" rx="34" fill="hsl(142, 72%, 57%)" opacity="0.18"/>
<rect x="163" y="485" width="255" height="125" rx="50" fill="hsl(189, 48%, 64%)" opacity="0.26"/>
<rect x="242" y="538" width="294" height="154" rx="66" fill="hsl(236, 60%, 71%)" opacity="0.34"/>
<rect x="321" y="591" width="333" height="183" rx="18" fill="hsl(267, 48%, 50%)" opacity="0.42"/>
<rect x="400" y="644" width="372" height="212" rx="34" fill="hsl(314, 60%, 57%)" opacity="0.50"/>
<rect x="479" y="47" width="131" height="241" rx="50" fill="hsl(1, 72%, 64%)" opacity="0.18"/>
<rect x="558" y="100" width="170" height="270" rx="66" fill="hsl(48, 48%, 71%)" opacity="0.26"/>
<rect x="637" y="153" width="209" height="299" rx="18" fill="hsl(95, 60%, 50%)" opacity="0.34"/>
<rect x="716" y="206" width="248" height="98" rx="34" fill="hsl(142, 72%, 57%)" opacity="0.42"/>
<rect x="795" y="259" width="287" height="127" rx="50" fill="hsl(189, 48%, 64%)" opacity="0.50"/>
<rect x="874" y="312" width="326" height="156" rx="66" fill="hsl(236, 60%, 71%)" opacity="0.18"/>
<polyline points="0,304 90,275 180,216 270,159 360,135 450,156 540,212 630,271 720,304 810,291 900,240" fill="none" stroke="hsl(1, 72%, 64%)" stroke-width="10" opacity="0.5" stroke-linecap="round"/>
<polyline points="0,323 90,264 180,207 270,183 360,204 450,260 540,319 630,352 720,339 810,288 900,227" fill="none" stroke="hsl(48, 48%, 71%)" stroke-width="13" opacity="0.5" stroke-linecap="round"/>
<polyline points="0,312 90,255 180,231 270,252 360,308 450,367 540,400 630,387 720,336 810,275 900,235" fill="none" stroke="hsl(95, 60%, 50%)" stroke-width="16" opacity="0.5" stroke-linecap="round"/>
<polyline points="0,303 90,279 180,300 270,356 360,415 450,448 540,435 630,384 720,323 810,283 900,287" fill="none" stroke="hsl(142, 72%, 57%)" stroke-width="19" opacity="0.5" stroke-linecap="round"/>
<polyline points="0,327 90,348 180,404 270,463 360,496 450,483 540,432 630,371 720,331 810,335 900,380" fill="none" stroke="hsl(189, 48%, 64%)" stroke-width="22" opacity="0.5" stroke-linecap="round"/>
<polyline points="0,396 90,452 180,511 270,544 360,531 450,480 540,419 630,379 720,383 810,428 900,491" fill="none" stroke="hsl(236, 60%, 71%)" stroke-width="25" opacity="0.5" stroke-linecap="round"/>
<rect x="0" y="0" width="900" height="650" fill="none" stroke="rgba(255,255,255,.7)" stroke-width="18"/>
</svg>