<svg xmlns="http://www.w3.org/2000/svg" viewBox="0 0 900 650" role="img" aria-label="Golden Field Path abstract painting">
<rect width="900" height="650" fill="hsl(111, 45%, 48%)"/>
<rect x="87" y="183" width="231" height="149" rx="20" fill="hsl(111, 45%, 48%)" opacity="0.18"/>
<rect x="170" y="230" width="268" height="172" rx="36" fill="hsl(160, 57%, 56%)" opacity="0.27"/>
<rect x="253" y="277" width="305" height="195" rx="52" fill="hsl(209, 69%, 64%)" opacity="0.36"/>
<rect x="336" y="324" width="342" height="218" rx="68" fill="hsl(258, 45%, 72%)" opacity="0.45"/>
<rect x="419" y="371" width="379" height="241" rx="20" fill="hsl(307, 57%, 48%)" opacity="0.54"/>
<rect x="502" y="418" width="156" height="264" rx="36" fill="hsl(356, 69%, 56%)" opacity="0.18"/>
<rect x="585" y="465" width="193" height="287" rx="52" fill="hsl(45, 45%, 64%)" opacity="0.27"/>
<rect x="668" y="512" width="230" height="90" rx="68" fill="hsl(94, 57%, 72%)" opacity="0.36"/>
<rect x="751" y="559" width="267" height="113" rx="20" fill="hsl(111, 45%, 48%)" opacity="0.45"/>
<rect x="834" y="606" width="304" height="136" rx="36" fill="hsl(160, 57%, 56%)" opacity="0.54"/>
<rect x="17" y="3" width="341" height="159" rx="52" fill="hsl(209, 69%, 64%)" opacity="0.18"/>
<rect x="100" y="50" width="378" height="182" rx="68" fill="hsl(258, 45%, 72%)" opacity="0.27"/>
<rect x="183" y="97" width="155" height="205" rx="20" fill="hsl(307, 57%, 48%)" opacity="0.36"/>
<rect x="266" y="144" width="192" height="228" rx="36" fill="hsl(356, 69%, 56%)" opacity="0.45"/>
<polyline points="0,301 100,235 200,172 300,150 400,183 500,250 600,311 700,329 800,293 900,224" fill="none" stroke="hsl(258, 45%, 72%)" stroke-width="12" opacity="0.48" stroke-linecap="round"/>
<polyline points="0,277 100,214 200,192 300,225 400,292 500,353 600,371 700,335 800,266 900,207" fill="none" stroke="hsl(307, 57%, 48%)" stroke-width="16" opacity="0.48" stroke-linecap="round"/>
<polyline points="0,256 100,234 200,267 300,334 400,395 500,413 600,377 700,308 800,249 900,236" fill="none" stroke="hsl(356, 69%, 56%)" stroke-width="20" opacity="0.48" stroke-linecap="round"/>
<polyline points="0,276 100,309 200,376 300,437 400,455 500,419 600,350 700,291 800,278 900,318" fill="none" stroke="hsl(45, 45%, 64%)" stroke-width="24" opacity="0.48" stroke-linecap="round"/>
<polyline points="0,351 100,418 200,479 300,497 400,461 500,392 600,333 700,320 800,360 900,429" fill="none" stroke="hsl(94, 57%, 72%)" stroke-width="28" opacity="0.48" stroke-linecap="round"/>
<rect x="0" y="0" width="900" height="650" fill="none" stroke="rgba(255,255,255,.55)" stroke-width="16"/>
</svg>