<svg xmlns="http://www.w3.org/2000/svg" viewBox="0 0 900 650" role="img" aria-label="Amber Window Dream abstract painting">
<rect width="900" height="650" fill="hsl(259, 45%, 48%)"/>
<rect x="203" y="427" width="379" height="241" rx="20" fill="hsl(259, 45%, 48%)" opacity="0.18"/>
<rect x="286" y="474" width="156" height="264" rx="36" fill="hsl(308, 57%, 56%)" opacity="0.27"/>
<rect x="369" y="521" width="193" height="287" rx="52" fill="hsl(357, 69%, 64%)" opacity="0.36"/>
<rect x="452" y="568" width="230" height="90" rx="68" fill="hsl(46, 45%, 72%)" opacity="0.45"/>
<rect x="535" y="615" width="267" height="113" rx="20" fill="hsl(95, 57%, 48%)" opacity="0.54"/>
<rect x="618" y="12" width="304" height="136" rx="36" fill="hsl(144, 69%, 56%)" opacity="0.18"/>
<rect x="701" y="59" width="341" height="159" rx="52" fill="hsl(193, 45%, 64%)" opacity="0.27"/>
<rect x="784" y="106" width="378" height="182" rx="68" fill="hsl(242, 57%, 72%)" opacity="0.36"/>
<rect x="867" y="153" width="155" height="205" rx="20" fill="hsl(259, 45%, 48%)" opacity="0.45"/>
<rect x="50" y="200" width="192" height="228" rx="36" fill="hsl(308, 57%, 56%)" opacity="0.54"/>
<rect x="133" y="247" width="229" height="251" rx="52" fill="hsl(357, 69%, 64%)" opacity="0.18"/>
<rect x="216" y="294" width="266" height="274" rx="68" fill="hsl(46, 45%, 72%)" opacity="0.27"/>
<rect x="299" y="341" width="303" height="297" rx="20" fill="hsl(95, 57%, 48%)" opacity="0.36"/>
<rect x="382" y="388" width="340" height="100" rx="36" fill="hsl(144, 69%, 56%)" opacity="0.45"/>
<polyline points="0,183 100,250 200,311 300,329 400,293 500,224 600,165 700,152 800,192 900,261" fill="none" stroke="hsl(46, 45%, 72%)" stroke-width="12" opacity="0.48" stroke-linecap="round"/>
<polyline points="0,292 100,353 200,371 300,335 400,266 500,207 600,194 700,234 800,303 900,359" fill="none" stroke="hsl(95, 57%, 48%)" stroke-width="16" opacity="0.48" stroke-linecap="round"/>
<polyline points="0,395 100,413 200,377 300,308 400,249 500,236 600,276 700,345 800,401 900,411" fill="none" stroke="hsl(144, 69%, 56%)" stroke-width="20" opacity="0.48" stroke-linecap="round"/>
<polyline points="0,455 100,419 200,350 300,291 400,278 500,318 600,387 700,443 800,453 900,410" fill="none" stroke="hsl(193, 45%, 64%)" stroke-width="24" opacity="0.48" stroke-linecap="round"/>
<polyline points="0,461 100,392 200,333 300,320 400,360 500,429 600,485 700,495 800,452 900,382" fill="none" stroke="hsl(242, 57%, 72%)" stroke-width="28" opacity="0.48" stroke-linecap="round"/>
<rect x="0" y="0" width="900" height="650" fill="none" stroke="rgba(255,255,255,.55)" stroke-width="16"/>
</svg>