<svg xmlns="http://www.w3.org/2000/svg" viewBox="0 0 900 650" role="img" aria-label="Green Meadow Noon abstract painting">
<rect width="900" height="650" fill="hsl(168, 48%, 50%)"/>
<rect x="496" y="38" width="184" height="94" rx="18" fill="hsl(168, 48%, 50%)" opacity="0.18"/>
<rect x="575" y="91" width="223" height="123" rx="34" fill="hsl(215, 60%, 57%)" opacity="0.26"/>
<rect x="654" y="144" width="262" height="152" rx="50" fill="hsl(262, 72%, 64%)" opacity="0.34"/>
<rect x="733" y="197" width="301" height="181" rx="66" fill="hsl(309, 48%, 71%)" opacity="0.42"/>
<rect x="812" y="250" width="340" height="210" rx="18" fill="hsl(356, 60%, 50%)" opacity="0.50"/>
<rect x="891" y="303" width="379" height="239" rx="34" fill="hsl(43, 72%, 57%)" opacity="0.18"/>
<rect x="70" y="356" width="138" height="268" rx="50" fill="hsl(90, 48%, 64%)" opacity="0.26"/>
<rect x="149" y="409" width="177" height="297" rx="66" fill="hsl(137, 60%, 71%)" opacity="0.34"/>
<rect x="228" y="462" width="216" height="96" rx="18" fill="hsl(168, 48%, 50%)" opacity="0.42"/>
<rect x="307" y="515" width="255" height="125" rx="34" fill="hsl(215, 60%, 57%)" opacity="0.50"/>
<rect x="386" y="568" width="294" height="154" rx="50" fill="hsl(262, 72%, 64%)" opacity="0.18"/>
<rect x="465" y="621" width="333" height="183" rx="66" fill="hsl(309, 48%, 71%)" opacity="0.26"/>
<rect x="544" y="24" width="372" height="212" rx="18" fill="hsl(356, 60%, 50%)" opacity="0.34"/>
<rect x="623" y="77" width="131" height="241" rx="34" fill="hsl(43, 72%, 57%)" opacity="0.42"/>
<rect x="702" y="130" width="170" height="270" rx="50" fill="hsl(90, 48%, 64%)" opacity="0.50"/>
<rect x="781" y="183" width="209" height="299" rx="66" fill="hsl(137, 60%, 71%)" opacity="0.18"/>
<polyline points="0,174 90,236 180,288 270,304 360,275 450,216 540,159 630,135 720,156 810,212 900,271" fill="none" stroke="hsl(262, 72%, 64%)" stroke-width="10" opacity="0.5" stroke-linecap="round"/>
<polyline points="0,284 90,336 180,352 270,323 360,264 450,207 540,183 630,204 720,260 810,319 900,352" fill="none" stroke="hsl(309, 48%, 71%)" stroke-width="13" opacity="0.5" stroke-linecap="round"/>
<polyline points="0,384 90,400 180,371 270,312 360,255 450,231 540,252 630,308 720,367 810,400 900,387" fill="none" stroke="hsl(356, 60%, 50%)" stroke-width="16" opacity="0.5" stroke-linecap="round"/>
<polyline points="0,448 90,419 180,360 270,303 360,279 450,300 540,356 630,415 720,448 810,435 900,384" fill="none" stroke="hsl(43, 72%, 57%)" stroke-width="19" opacity="0.5" stroke-linecap="round"/>
<polyline points="0,467 90,408 180,351 270,327 360,348 450,404 540,463 630,496 720,483 810,432 900,371" fill="none" stroke="hsl(90, 48%, 64%)" stroke-width="22" opacity="0.5" stroke-linecap="round"/>
<polyline points="0,456 90,399 180,375 270,396 360,452 450,511 540,544 630,531 720,480 810,419 900,379" fill="none" stroke="hsl(137, 60%, 71%)" stroke-width="25" opacity="0.5" stroke-linecap="round"/>
<rect x="0" y="0" width="900" height="650" fill="none" stroke="rgba(255,255,255,.7)" stroke-width="18"/>
</svg>